CossetteTitre-Bold.ufo
<glyph name="quotedbl" format="2">
  <advance width="365"/>
  <unicode hex="0022"/>
  <outline>
    <contour>
      <point x="45" y="500" type="line"/>
      <point x="150" y="500" type="line"/>
      <point x="160" y="800" type="line"/>
      <point x="35" y="800" type="line"/>
    </contour>
    <contour>
      <point x="215" y="500" type="line"/>
      <point x="320" y="500" type="line"/>
      <point x="330" y="800" type="line"/>
      <point x="205" y="800" type="line"/>
    </contour>
  </outline>
</glyph>
<glyph name="percent" format="2">
  <advance width="600"/>
  <unicode hex="0025"/>
  <outline>
    <contour>
      <point x="30" y="600" type="curve" smooth="yes"/>
      <point x="30" y="468"/>
      <point x="75" y="390"/>
      <point x="150" y="390" type="curve" smooth="yes"/>
      <point x="225" y="390"/>
      <point x="270" y="468"/>
      <point x="270" y="600" type="curve" smooth="yes"/>
      <point x="270" y="732"/>
      <point x="225" y="810"/>
      <point x="150" y="810" type="curve" smooth="yes"/>
      <point x="75" y="810"/>
      <point x="30" y="732"/>
    </contour>
    <contour>
      <point x="110" y="600" type="curve" smooth="yes"/>
      <point x="110" y="664"/>
      <point x="122" y="700"/>
      <point x="150" y="700" type="curve" smooth="yes"/>
      <point x="178" y="700"/>
      <point x="190" y="664"/>
      <point x="190" y="600" type="curve" smooth="yes"/>
      <point x="190" y="536"/>
      <point x="178" y="500"/>
      <point x="150" y="500" type="curve" smooth="yes"/>
      <point x="122" y="500"/>
      <point x="110" y="536"/>
    </contour>
    <contour>
      <point x="60" y="0" type="line"/>
      <point x="140" y="0" type="line"/>
      <point x="540" y="800" type="line"/>
      <point x="460" y="800" type="line"/>
    </contour>
    <contour>
      <point x="330" y="200" type="curve" smooth="yes"/>
      <point x="330" y="68"/>
      <point x="375" y="-10"/>
      <point x="450" y="-10" type="curve" smooth="yes"/>
      <point x="525" y="-10"/>
      <point x="570" y="68"/>
      <point x="570" y="200" type="curve" smooth="yes"/>
      <point x="570" y="332"/>
      <point x="525" y="410"/>
      <point x="450" y="410" type="curve" smooth="yes"/>
      <point x="375" y="410"/>
      <point x="330" y="332"/>
    </contour>
    <contour>
      <point x="410" y="200" type="curve" smooth="yes"/>
      <point x="410" y="264"/>
      <point x="422" y="300"/>
      <point x="450" y="300" type="curve" smooth="yes"/>
      <point x="478" y="300"/>
      <point x="490" y="264"/>
      <point x="490" y="200" type="curve" smooth="yes"/>
      <point x="490" y="136"/>
      <point x="478" y="100"/>
      <point x="450" y="100" type="curve" smooth="yes"/>
      <point x="422" y="100"/>
      <point x="410" y="136"/>
    </contour>
  </outline>
</glyph>
<glyph name="parenleft" format="2">
  <advance width="300"/>
  <unicode hex="0028"/>
  <outline>
    <contour>
      <point x="180.0" y="-150.0" type="curve"/>
      <point x="300.0" y="-150.0" type="line"/>
      <point x="220.0" y="0.0"/>
      <point x="180.0" y="150.0"/>
      <point x="180.0" y="300.0" type="curve" smooth="yes"/>
      <point x="180.0" y="450.0"/>
      <point x="220.0" y="600.0"/>
      <point x="300.0" y="750.0" type="curve"/>
      <point x="180.0" y="750.0" type="line"/>
      <point x="100.0" y="600.0"/>
      <point x="60.0" y="450.0"/>
      <point x="60.0" y="300.0" type="curve" smooth="yes"/>
      <point x="60.0" y="150.0"/>
      <point x="100.0" y="0.0"/>
    </contour>
  </outline>
</glyph>
<glyph name="parenright" format="2">
  <advance width="300"/>
  <unicode hex="0029"/>
  <outline>
    <contour>
      <point x="120.0" y="-150.0" type="line"/>
      <point x="200.0" y="0.0"/>
      <point x="240.0" y="150.0"/>
      <point x="240.0" y="300.0" type="curve" smooth="yes"/>
      <point x="240.0" y="450.0"/>
      <point x="200.0" y="600.0"/>
      <point x="120.0" y="750.0" type="curve"/>
      <point x="0.0" y="750.0" type="line"/>
      <point x="80.0" y="600.0"/>
      <point x="120.0" y="450.0"/>
      <point x="120.0" y="300.0" type="curve" smooth="yes"/>
      <point x="120.0" y="150.0"/>
      <point x="80.0" y="0.0"/>
      <point x="0.0" y="-150.0" type="curve"/>
    </contour>
  </outline>
</glyph>
<glyph name="asterisk" format="2">
  <advance width="450"/>
  <unicode hex="002A"/>
  <outline>
    <contour>
      <point x="180" y="600" type="line"/>
      <point x="225" y="600" type="line"/>
      <point x="270" y="600" type="line"/>
      <point x="285" y="800" type="line"/>
      <point x="165" y="800" type="line"/>
    </contour>
    <contour>
      <point x="260" y="560" type="line"/>
      <point x="225" y="587" type="line"/>
      <point x="190" y="614" type="line"/>
      <point x="60" y="460" type="line"/>
      <point x="155" y="390" type="line"/>
    </contour>
    <contour>
      <point x="190" y="560" type="line"/>
      <point x="295" y="390" type="line"/>
      <point x="390" y="460" type="line"/>
      <point x="260" y="614" type="line"/>
      <point x="225" y="587" type="line"/>
    </contour>
    <contour>
      <point x="211" y="552" type="line"/>
      <point x="225" y="587" type="line"/>
      <point x="239" y="638" type="line"/>
      <point x="53" y="714" type="line"/>
      <point x="16" y="600" type="line"/>
    </contour>
    <contour>
      <point x="239" y="552" type="line"/>
      <point x="434" y="600" type="line"/>
      <point x="397" y="714" type="line"/>
      <point x="211" y="638" type="line"/>
      <point x="225" y="587" type="line"/>
    </contour>
  </outline>
</glyph>
<glyph name="plus" format="2">
  <advance width="450"/>
  <unicode hex="002B"/>
  <outline>
    <contour>
      <point x="415" y="425" type="line"/>
      <point x="35" y="425" type="line"/>
      <point x="35" y="275" type="line"/>
      <point x="415" y="275" type="line"/>
    </contour>
    <contour>
      <point x="175" y="100" type="line"/>
      <point x="275" y="100" type="line"/>
      <point x="275" y="600" type="line"/>
      <point x="175" y="600" type="line"/>
    </contour>
  </outline>
</glyph>
<glyph name="comma" format="2">
  <advance width="200"/>
  <unicode hex="002C"/>
  <outline>
    <contour>
      <point x="35" y="0" type="line"/>
      <point x="95" y="0" type="line"/>
      <point x="95" y="0" type="line"/>
      <point x="95" y="-45"/>
      <point x="80" y="-70"/>
      <point x="35" y="-70" type="curve"/>
      <point x="35" y="-150" type="line"/>
      <point x="120" y="-150"/>
      <point x="165" y="-100"/>
      <point x="165" y="0" type="curve"/>
      <point x="165" y="160" type="line"/>
      <point x="35" y="160" type="line"/>
    </contour>
  </outline>
</glyph>
<glyph name="hyphen" format="2">
  <advance width="250"/>
  <unicode hex="002D"/>
  <outline>
    <contour>
      <point x="215" y="380" type="line"/>
      <point x="35" y="380" type="line"/>
      <point x="35" y="220" type="line"/>
      <point x="215" y="220" type="line"/>
    </contour>
  </outline>
</glyph>
<glyph name="slash" format="2">
  <advance width="324"/>
  <unicode hex="002F"/>
  <outline>
    <contour>
      <point x="0" y="0" type="line"/>
      <point x="124" y="0" type="line"/>
      <point x="324" y="800" type="line"/>
      <point x="200" y="800" type="line"/>
    </contour>
  </outline>
</glyph>
<glyph name="two" format="2">
  <advance width="430"/>
  <unicode hex="0032"/>
  <outline>
    <contour>
      <point x="30" y="50" type="curve" smooth="yes"/>
      <point x="30" y="0" type="line"/>
      <point x="400" y="0" type="line"/>
      <point x="400" y="160" type="line"/>
      <point x="173" y="160" type="line"/>
      <point x="191" y="301"/>
      <point x="400" y="320"/>
      <point x="400" y="550" type="curve" smooth="yes"/>
      <point x="400" y="700"/>
      <point x="329" y="810"/>
      <point x="215" y="810" type="curve" smooth="yes"/>
      <point x="101" y="810"/>
      <point x="30" y="700"/>
      <point x="30" y="520" type="curve"/>
      <point x="153" y="520" type="line"/>
      <point x="153" y="600"/>
      <point x="177" y="640"/>
      <point x="215" y="640" type="curve" smooth="yes"/>
      <point x="253" y="640"/>
      <point x="277" y="600"/>
      <point x="277" y="550" type="curve" smooth="yes"/>
      <point x="277" y="370"/>
      <point x="30" y="410"/>
    </contour>
    <contour>
      <point x="30" y="50" type="line"/>
      <point x="30" y="50" type="line"/>
    </contour>
  </outline>
</glyph>
<glyph name="four" format="2">
  <advance width="454"/>
  <unicode hex="0034"/>
  <outline>
    <contour>
      <point x="192" y="800" type="line"/>
      <point x="20" y="330" type="line"/>
      <point x="20" y="150" type="line"/>
      <point x="232" y="150" type="line"/>
      <point x="232" y="0" type="line"/>
      <point x="353" y="0" type="line"/>
      <point x="353" y="150" type="line"/>
      <point x="434" y="150" type="line"/>
      <point x="434" y="310" type="line"/>
      <point x="353" y="310" type="line"/>
      <point x="353" y="800" type="line"/>
    </contour>
    <contour>
      <point x="232" y="600" type="line"/>
      <point x="232" y="310" type="line"/>
      <point x="123" y="310" type="line"/>
      <point x="229" y="600" type="line"/>
    </contour>
    <contour>
      <point x="232" y="600" type="line"/>
      <point x="232" y="600" type="line"/>
    </contour>
  </outline>
</glyph>
<glyph name="five" format="2">
  <advance width="443"/>
  <unicode hex="0035"/>
  <outline>
    <contour>
      <point x="222" y="-10" type="curve" smooth="yes"/>
      <point x="339" y="-10"/>
      <point x="413" y="86"/>
      <point x="413" y="270" type="curve" smooth="yes"/>
      <point x="413" y="454"/>
      <point x="349" y="550"/>
      <point x="251" y="550" type="curve" smooth="yes"/>
      <point x="220" y="550"/>
      <point x="193" y="534"/>
      <point x="177" y="510" type="curve"/>
      <point x="172" y="510" type="line"/>
      <point x="187" y="640" type="line"/>
      <point x="393" y="640" type="line"/>
      <point x="393" y="800" type="line"/>
      <point x="79" y="800" type="line"/>
      <point x="37" y="340" type="line"/>
      <point x="160" y="340" type="line"/>
      <point x="171" y="376"/>
      <point x="194" y="390"/>
      <point x="222" y="390" type="curve" smooth="yes"/>
      <point x="263" y="390"/>
      <point x="290" y="360"/>
      <point x="290" y="270" type="curve" smooth="yes"/>
      <point x="290" y="180"/>
      <point x="263" y="150"/>
      <point x="222" y="150" type="curve" smooth="yes"/>
      <point x="180" y="150"/>
      <point x="153" y="180"/>
      <point x="153" y="250" type="curve"/>
      <point x="30" y="250" type="line"/>
      <point x="30" y="86"/>
      <point x="104" y="-10"/>
    </contour>
    <contour>
      <point x="222" y="-10" type="line"/>
    </contour>
  </outline>
</glyph>
<glyph name="seven" format="2">
  <advance width="410"/>
  <unicode hex="0037"/>
  <outline>
    <contour>
      <point x="90" y="0" type="curve"/>
      <point x="240" y="0" type="line"/>
      <point x="240" y="240"/>
      <point x="270" y="460"/>
      <point x="390" y="640" type="curve"/>
      <point x="390" y="800" type="line"/>
      <point x="20" y="800" type="line"/>
      <point x="20" y="640" type="line"/>
      <point x="320" y="640" type="line"/>
      <point x="260" y="640" type="line"/>
      <point x="140" y="460"/>
      <point x="90" y="240"/>
    </contour>
  </outline>
</glyph>
<glyph name="eight" format="2">
  <advance width="450"/>
  <unicode hex="0038"/>
  <outline>
    <contour>
      <point x="225" y="660" type="curve" smooth="yes"/>
      <point x="260" y="660"/>
      <point x="290" y="630"/>
      <point x="290" y="570" type="curve" smooth="yes"/>
      <point x="290" y="510"/>
      <point x="260" y="480"/>
      <point x="225" y="480" type="curve" smooth="yes"/>
      <point x="190" y="480"/>
      <point x="160" y="510"/>
      <point x="160" y="570" type="curve" smooth="yes"/>
      <point x="160" y="630"/>
      <point x="190" y="660"/>
    </contour>
    <contour>
      <point x="225" y="340" type="curve" smooth="yes"/>
      <point x="270" y="340"/>
      <point x="300" y="300"/>
      <point x="300" y="240" type="curve" smooth="yes"/>
      <point x="300" y="180"/>
      <point x="270" y="140"/>
      <point x="225" y="140" type="curve" smooth="yes"/>
      <point x="180" y="140"/>
      <point x="150" y="180"/>
      <point x="150" y="240" type="curve" smooth="yes"/>
      <point x="150" y="300"/>
      <point x="180" y="340"/>
    </contour>
    <contour>
      <point x="225" y="460" type="curve"/>
      <point x="105" y="460"/>
      <point x="30" y="368"/>
      <point x="30" y="230" type="curve" smooth="yes"/>
      <point x="30" y="86"/>
      <point x="105" y="-10"/>
      <point x="225" y="-10" type="curve" smooth="yes"/>
      <point x="345" y="-10"/>
      <point x="420" y="86"/>
      <point x="420" y="230" type="curve" smooth="yes"/>
      <point x="420" y="368"/>
      <point x="345" y="460"/>
    </contour>
    <contour>
      <point x="225" y="360" type="curve"/>
      <point x="335" y="360"/>
      <point x="410" y="448"/>
      <point x="410" y="580" type="curve" smooth="yes"/>
      <point x="410" y="720"/>
      <point x="335" y="810"/>
      <point x="225" y="810" type="curve" smooth="yes"/>
      <point x="115" y="810"/>
      <point x="40" y="720"/>
      <point x="40" y="580" type="curve" smooth="yes"/>
      <point x="40" y="448"/>
      <point x="115" y="360"/>
    </contour>
  </outline>
</glyph>
<glyph name="colon" format="2">
  <advance width="200"/>
  <unicode hex="003A"/>
  <outline>
    <contour>
      <point x="35" y="0" type="line"/>
      <point x="165" y="0" type="line"/>
      <point x="165" y="160" type="line"/>
      <point x="35" y="160" type="line"/>
    </contour>
    <contour>
      <point x="35" y="440" type="line"/>
      <point x="165" y="440" type="line"/>
      <point x="165" y="600" type="line"/>
      <point x="35" y="600" type="line"/>
    </contour>
  </outline>
</glyph>
<glyph name="semicolon" format="2">
  <advance width="200"/>
  <unicode hex="003B"/>
  <outline>
    <contour>
      <point x="35" y="440" type="line"/>
      <point x="165" y="440" type="line"/>
      <point x="165" y="600" type="line"/>
      <point x="35" y="600" type="line"/>
    </contour>
    <contour>
      <point x="35" y="0" type="line"/>
      <point x="95" y="0" type="line"/>
      <point x="95" y="0" type="line"/>
      <point x="95" y="-45"/>
      <point x="80" y="-70"/>
      <point x="35" y="-70" type="curve"/>
      <point x="35" y="-150" type="line"/>
      <point x="120" y="-150"/>
      <point x="165" y="-100"/>
      <point x="165" y="0" type="curve"/>
      <point x="165" y="160" type="line"/>
      <point x="35" y="160" type="line"/>
    </contour>
  </outline>
</glyph>
<glyph name="equal" format="2">
  <advance width="450"/>
  <unicode hex="003D"/>
  <outline>
    <contour>
      <point x="405" y="550" type="line"/>
      <point x="45" y="550" type="line"/>
      <point x="45" y="410" type="line"/>
      <point x="405" y="410" type="line"/>
    </contour>
    <contour>
      <point x="405" y="290" type="line"/>
      <point x="45" y="290" type="line"/>
      <point x="45" y="150" type="line"/>
      <point x="405" y="150" type="line"/>
    </contour>
  </outline>
</glyph>
<glyph name="at" format="2">
  <advance width="600"/>
  <unicode hex="0040"/>
  <outline>
    <contour>
      <point x="280" y="90" type="curve" smooth="yes"/>
      <point x="340" y="90"/>
      <point x="380" y="168"/>
      <point x="380" y="300" type="curve"/>
      <point x="370" y="300" type="line"/>
      <point x="370" y="432"/>
      <point x="340" y="510"/>
      <point x="280" y="510" type="curve" smooth="yes"/>
      <point x="220" y="510"/>
      <point x="170" y="432"/>
      <point x="170" y="300" type="curve" smooth="yes"/>
      <point x="170" y="168"/>
      <point x="220" y="90"/>
    </contour>
    <contour>
      <point x="295" y="200" type="curve" smooth="yes"/>
      <point x="263" y="200"/>
      <point x="245" y="236"/>
      <point x="245" y="300" type="curve" smooth="yes"/>
      <point x="245" y="364"/>
      <point x="263" y="400"/>
      <point x="295" y="400" type="curve" smooth="yes"/>
      <point x="327" y="400"/>
      <point x="345" y="364"/>
      <point x="345" y="300" type="curve" smooth="yes"/>
      <point x="345" y="236"/>
      <point x="327" y="200"/>
    </contour>
    <contour>
      <point x="570" y="300" type="curve" smooth="yes"/>
      <point x="570" y="546"/>
      <point x="462" y="710"/>
      <point x="300" y="710" type="curve" smooth="yes"/>
      <point x="138" y="710"/>
      <point x="30" y="546"/>
      <point x="30" y="300" type="curve" smooth="yes"/>
      <point x="30" y="54"/>
      <point x="138" y="-100"/>
      <point x="300" y="-100" type="curve" smooth="yes"/>
      <point x="350" y="-100" type="line"/>
      <point x="350" y="10" type="line"/>
      <point x="300" y="10" type="line" smooth="yes"/>
      <point x="186" y="10"/>
      <point x="110" y="120"/>
      <point x="110" y="300" type="curve" smooth="yes"/>
      <point x="110" y="480"/>
      <point x="186" y="600"/>
      <point x="300" y="600" type="curve" smooth="yes"/>
      <point x="414" y="600"/>
      <point x="490" y="480"/>
      <point x="490" y="300" type="curve" smooth="yes"/>
      <point x="490" y="180"/>
      <point x="465" y="160"/>
      <point x="445" y="160" type="curve" smooth="yes"/>
      <point x="425" y="160"/>
      <point x="420" y="180"/>
      <point x="420" y="210" type="curve" smooth="yes"/>
      <point x="420" y="500" type="line"/>
      <point x="340" y="500" type="line"/>
      <point x="340" y="400" type="line"/>
      <point x="360" y="300" type="line"/>
      <point x="340" y="210" type="line"/>
      <point x="340" y="120"/>
      <point x="380" y="60"/>
      <point x="440" y="60" type="curve" smooth="yes"/>
      <point x="500" y="60"/>
      <point x="570" y="120"/>
    </contour>
  </outline>
</glyph>
<glyph name="B" format="2">
  <advance width="476"/>
  <unicode hex="0042"/>
  <outline>
    <contour>
      <point x="172" y="480" type="line"/>
      <point x="172" y="640" type="line"/>
      <point x="244" y="640" type="line" smooth="yes"/>
      <point x="297" y="640"/>
      <point x="324" y="613"/>
      <point x="324" y="560" type="curve" smooth="yes"/>
      <point x="324" y="507"/>
      <point x="297" y="480"/>
      <point x="244" y="480" type="curve" smooth="yes"/>
    </contour>
    <contour>
      <point x="172" y="340" type="line"/>
      <point x="244" y="340" type="line" smooth="yes"/>
      <point x="304" y="340"/>
      <point x="334" y="310"/>
      <point x="334" y="250" type="curve" smooth="yes"/>
      <point x="334" y="190"/>
      <point x="304" y="160"/>
      <point x="244" y="160" type="curve" smooth="yes"/>
      <point x="172" y="160" type="line"/>
    </contour>
    <contour>
      <point x="244" y="370" type="line"/>
      <point x="380" y="370"/>
      <point x="450" y="450"/>
      <point x="450" y="580" type="curve" smooth="yes"/>
      <point x="450" y="720"/>
      <point x="380" y="800"/>
      <point x="244" y="800" type="curve" smooth="yes"/>
      <point x="40" y="800" type="line"/>
      <point x="40" y="0" type="line"/>
      <point x="244" y="0" type="line" smooth="yes"/>
      <point x="388" y="0"/>
      <point x="460" y="80"/>
      <point x="460" y="230" type="curve" smooth="yes"/>
      <point x="460" y="370"/>
      <point x="388" y="450"/>
      <point x="244" y="450" type="curve"/>
    </contour>
  </outline>
</glyph>
<glyph name="C" format="2">
  <advance width="492"/>
  <unicode hex="0043"/>
  <anchor x="260" y="0" name="bottom"/>
  <anchor x="260" y="800" name="top"/>
  <outline>
    <contour>
      <point x="260" y="160" type="curve" smooth="yes"/>
      <point x="191" y="160"/>
      <point x="150" y="250"/>
      <point x="150" y="400" type="curve" smooth="yes"/>
      <point x="150" y="550"/>
      <point x="191" y="640"/>
      <point x="260" y="640" type="curve" smooth="yes"/>
      <point x="305" y="640"/>
      <point x="345" y="600"/>
      <point x="350" y="520" type="curve"/>
      <point x="480" y="520" type="line"/>
      <point x="468" y="700"/>
      <point x="383" y="810"/>
      <point x="260" y="810" type="curve" smooth="yes"/>
      <point x="112" y="810"/>
      <point x="24" y="656"/>
      <point x="24" y="400" type="curve" smooth="yes"/>
      <point x="24" y="144"/>
      <point x="112" y="-10"/>
      <point x="260" y="-10" type="curve" smooth="yes"/>
      <point x="383" y="-10"/>
      <point x="468" y="100"/>
      <point x="480" y="280" type="curve"/>
      <point x="350" y="280" type="line"/>
      <point x="345" y="200"/>
      <point x="305" y="160"/>
    </contour>
  </outline>
</glyph>
<glyph name="E" format="2">
  <advance width="440"/>
  <unicode hex="0045"/>
  <anchor x="225" y="800" name="top"/>
  <anchor x="420" y="0" name="ogonek"/>
  <outline>
    <contour>
      <point x="40" y="0" type="line"/>
      <point x="420" y="0" type="line"/>
      <point x="420" y="160" type="line"/>
      <point x="172" y="160" type="line"/>
      <point x="172" y="324" type="line"/>
      <point x="390" y="324" type="line"/>
      <point x="390" y="484" type="line"/>
      <point x="172" y="484" type="line"/>
      <point x="172" y="640" type="line"/>
      <point x="410" y="640" type="line"/>
      <point x="410" y="800" type="line"/>
      <point x="40" y="800" type="line"/>
    </contour>
  </outline>
</glyph>
<glyph name="L" format="2">
  <advance width="420"/>
  <unicode hex="004C"/>
  <anchor x="106" y="800" name="top"/>
  <anchor x="220" y="0" name="bottom"/>
  <anchor x="172" y="600" name="caron.alt"/>
  <outline>
    <contour>
      <point x="40" y="0" type="line"/>
      <point x="400" y="0" type="line"/>
      <point x="400" y="160" type="line"/>
      <point x="172" y="160" type="line"/>
      <point x="172" y="800" type="line"/>
      <point x="40" y="800" type="line"/>
    </contour>
  </outline>
</glyph>
<glyph name="M" format="2">
  <advance width="692"/>
  <unicode hex="004D"/>
  <outline>
    <contour>
      <point x="40" y="0" type="line"/>
      <point x="166" y="0" type="line"/>
      <point x="166" y="600" type="line"/>
      <point x="172" y="600" type="line"/>
      <point x="187" y="500" type="line"/>
      <point x="274" y="0" type="line"/>
      <point x="418" y="0" type="line"/>
      <point x="505" y="500" type="line"/>
      <point x="520" y="600" type="line"/>
      <point x="526" y="600" type="line"/>
      <point x="526" y="0" type="line"/>
      <point x="652" y="0" type="line"/>
      <point x="652" y="800" type="line"/>
      <point x="426" y="800" type="line"/>
      <point x="360" y="340" type="line"/>
      <point x="349" y="260" type="line"/>
      <point x="343" y="260" type="line"/>
      <point x="332" y="340" type="line"/>
      <point x="266" y="800" type="line"/>
      <point x="40" y="800" type="line"/>
    </contour>
  </outline>
</glyph>
<glyph name="N" format="2">
  <advance width="540"/>
  <unicode hex="004E"/>
  <anchor x="297" y="800" name="top"/>
  <anchor x="270" y="0" name="bottom"/>
  <outline>
    <contour>
      <point x="40" y="0" type="line"/>
      <point x="166" y="0" type="line"/>
      <point x="166" y="800" type="line"/>
      <point x="40" y="800" type="line"/>
    </contour>
    <contour>
      <point x="374" y="0" type="line"/>
      <point x="500" y="0" type="line"/>
      <point x="500" y="800" type="line"/>
      <point x="374" y="800" type="line"/>
    </contour>
    <contour>
      <point x="320" y="0" type="line"/>
      <point x="416" y="0" type="line"/>
      <point x="374" y="270" type="line"/>
      <point x="368" y="270" type="line"/>
      <point x="343" y="370" type="line"/>
      <point x="220" y="800" type="line"/>
      <point x="124" y="800" type="line"/>
      <point x="166" y="530" type="line"/>
      <point x="172" y="530" type="line"/>
      <point x="197" y="430" type="line"/>
    </contour>
  </outline>
</glyph>
<glyph name="Q" format="2">
  <advance width="540"/>
  <unicode hex="0051"/>
  <outline>
    <contour>
      <point x="420" y="0" type="line"/>
      <point x="546" y="0" type="line"/>
      <point x="326" y="330" type="line"/>
      <point x="200" y="330" type="line"/>
    </contour>
    <contour>
      <point x="270" y="-10" type="curve" smooth="yes"/>
      <point x="424" y="-10"/>
      <point x="516" y="144"/>
      <point x="516" y="400" type="curve" smooth="yes"/>
      <point x="516" y="656"/>
      <point x="424" y="810"/>
      <point x="270" y="810" type="curve" smooth="yes"/>
      <point x="116" y="810"/>
      <point x="24" y="656"/>
      <point x="24" y="400" type="curve" smooth="yes"/>
      <point x="24" y="144"/>
      <point x="116" y="-10"/>
    </contour>
    <contour>
      <point x="270" y="160" type="curve" smooth="yes"/>
      <point x="195" y="160"/>
      <point x="150" y="250"/>
      <point x="150" y="400" type="curve" smooth="yes"/>
      <point x="150" y="550"/>
      <point x="195" y="640"/>
      <point x="270" y="640" type="curve" smooth="yes"/>
      <point x="345" y="640"/>
      <point x="390" y="550"/>
      <point x="390" y="400" type="curve" smooth="yes"/>
      <point x="390" y="250"/>
      <point x="345" y="160"/>
    </contour>
  </outline>
</glyph>
<glyph name="S" format="2">
  <advance width="456"/>
  <unicode hex="0053"/>
  <anchor x="230" y="800" name="top"/>
  <anchor x="230" y="0" name="bottom"/>
  <outline>
    <contour>
      <point x="20" y="240" type="line" smooth="yes"/>
      <point x="20" y="100"/>
      <point x="90" y="-10"/>
      <point x="230" y="-10" type="curve" smooth="yes"/>
      <point x="370" y="-10"/>
      <point x="440" y="120"/>
      <point x="440" y="240" type="curve" smooth="yes"/>
      <point x="440" y="380"/>
      <point x="380" y="450"/>
      <point x="260" y="480" type="curve" smooth="yes"/>
      <point x="180" y="500"/>
      <point x="150" y="520"/>
      <point x="150" y="570" type="curve" smooth="yes"/>
      <point x="150" y="620"/>
      <point x="180" y="650"/>
      <point x="230" y="650" type="curve" smooth="yes"/>
      <point x="280" y="650"/>
      <point x="309" y="620"/>
      <point x="309" y="560" type="curve" smooth="yes"/>
      <point x="309" y="540" type="line"/>
      <point x="435" y="540" type="line"/>
      <point x="435" y="560" type="line" smooth="yes"/>
      <point x="435" y="700"/>
      <point x="370" y="810"/>
      <point x="230" y="810" type="curve" smooth="yes"/>
      <point x="90" y="810"/>
      <point x="25" y="680"/>
      <point x="25" y="560" type="curve" smooth="yes"/>
      <point x="25" y="420"/>
      <point x="80" y="350"/>
      <point x="200" y="320" type="curve" smooth="yes"/>
      <point x="280" y="300"/>
      <point x="314" y="281"/>
      <point x="314" y="230" type="curve" smooth="yes"/>
      <point x="314" y="180"/>
      <point x="280" y="150"/>
      <point x="230" y="150" type="curve" smooth="yes"/>
      <point x="180" y="150"/>
      <point x="146" y="180"/>
      <point x="146" y="240" type="curve" smooth="yes"/>
      <point x="146" y="260" type="line"/>
      <point x="20" y="260" type="line"/>
    </contour>
  </outline>
</glyph>
<glyph name="T" format="2">
  <advance width="424"/>
  <unicode hex="0054"/>
  <anchor x="212" y="800" name="top"/>
  <anchor x="212" y="0" name="bottom"/>
  <outline>
    <contour>
      <point x="146" y="0" type="line"/>
      <point x="278" y="0" type="line"/>
      <point x="278" y="640" type="line"/>
      <point x="414" y="640" type="line"/>
      <point x="414" y="800" type="line"/>
      <point x="10" y="800" type="line"/>
      <point x="10" y="640" type="line"/>
      <point x="146" y="640" type="line"/>
    </contour>
  </outline>
</glyph>
<glyph name="U" format="2">
  <advance width="500"/>
  <unicode hex="0055"/>
  <anchor x="250" y="800" name="top"/>
  <outline>
    <contour>
      <point x="38" y="320" type="line" smooth="yes"/>
      <point x="38" y="120"/>
      <point x="100" y="-10"/>
      <point x="250" y="-10" type="curve" smooth="yes"/>
      <point x="400" y="-10"/>
      <point x="462" y="120"/>
      <point x="462" y="320" type="curve" smooth="yes"/>
      <point x="462" y="800" type="line"/>
      <point x="330" y="800" type="line"/>
      <point x="330" y="320" type="line" smooth="yes"/>
      <point x="330" y="220"/>
      <point x="310" y="160"/>
      <point x="250" y="160" type="curve" smooth="yes"/>
      <point x="190" y="160"/>
      <point x="170" y="220"/>
      <point x="170" y="320" type="curve" smooth="yes"/>
      <point x="170" y="800" type="line"/>
      <point x="38" y="800" type="line"/>
    </contour>
  </outline>
</glyph>
<glyph name="X" format="2">
  <advance width="476"/>
  <unicode hex="0058"/>
  <outline>
    <contour>
      <point x="0" y="0" type="line"/>
      <point x="140" y="0" type="line"/>
      <point x="280" y="400" type="line"/>
      <point x="230" y="480" type="line"/>
      <point x="180" y="480" type="line"/>
    </contour>
    <contour>
      <point x="332" y="0" type="line"/>
      <point x="476" y="0" type="line"/>
      <point x="296" y="480" type="line"/>
      <point x="242" y="480" type="line"/>
      <point x="192" y="400" type="line"/>
    </contour>
    <contour>
      <point x="10" y="800" type="line"/>
      <point x="160" y="400" type="line"/>
      <point x="294" y="400" type="line"/>
      <point x="154" y="800" type="line"/>
    </contour>
    <contour>
      <point x="326" y="800" type="line"/>
      <point x="186" y="400" type="line"/>
      <point x="316" y="400" type="line"/>
      <point x="466" y="800" type="line"/>
    </contour>
    <contour>
      <point x="220" y="539" type="line"/>
      <point x="260" y="539" type="line"/>
      <point x="260" y="563" type="line"/>
      <point x="220" y="563" type="line"/>
    </contour>
    <contour>
      <point x="216" y="265" type="line"/>
      <point x="256" y="265" type="line"/>
      <point x="256" y="289" type="line"/>
      <point x="216" y="289" type="line"/>
    </contour>
  </outline>
</glyph>
<glyph name="Y" format="2">
  <advance width="472"/>
  <unicode hex="0059"/>
  <anchor x="236" y="800" name="top"/>
  <outline>
    <contour>
      <point x="302" y="300" type="line"/>
      <point x="472" y="800" type="line"/>
      <point x="336" y="800" type="line"/>
      <point x="265" y="580" type="line"/>
      <point x="241" y="500" type="line"/>
      <point x="235" y="500" type="line"/>
      <point x="211" y="580" type="line"/>
      <point x="140" y="800" type="line"/>
      <point x="0" y="800" type="line"/>
      <point x="170" y="300" type="line"/>
      <point x="170" y="0" type="line"/>
      <point x="302" y="0" type="line"/>
    </contour>
  </outline>
</glyph>
<glyph name="bracketleft" format="2">
  <advance width="300"/>
  <unicode hex="005B"/>
  <outline>
    <contour>
      <point x="50" y="-150" type="line"/>
      <point x="290" y="-150" type="line"/>
      <point x="290" y="0" type="line"/>
      <point x="170" y="0" type="line"/>
      <point x="170" y="600" type="line"/>
      <point x="290" y="600" type="line"/>
      <point x="290" y="750" type="line"/>
      <point x="50" y="750" type="line"/>
    </contour>
  </outline>
</glyph>
<glyph name="backslash" format="2">
  <advance width="324"/>
  <unicode hex="005C"/>
  <outline>
    <contour>
      <point x="324" y="0" type="line"/>
      <point x="124" y="800" type="line"/>
      <point x="0" y="800" type="line"/>
      <point x="200" y="0" type="line"/>
    </contour>
  </outline>
</glyph>
<glyph name="bracketright" format="2">
  <advance width="300"/>
  <unicode hex="005D"/>
  <outline>
    <contour>
      <point x="250" y="-150" type="line"/>
      <point x="250" y="750" type="line"/>
      <point x="10" y="750" type="line"/>
      <point x="10" y="600" type="line"/>
      <point x="130" y="600" type="line"/>
      <point x="130" y="0" type="line"/>
      <point x="10" y="0" type="line"/>
      <point x="10" y="-150" type="line"/>
    </contour>
  </outline>
</glyph>
<glyph name="c" format="2">
  <advance width="404"/>
  <unicode hex="0063"/>
  <anchor x="209" y="600" name="top"/>
  <anchor x="209" y="0" name="bottom"/>
  <outline>
    <contour>
      <point x="209" y="-10" type="curve" smooth="yes"/>
      <point x="309" y="-10"/>
      <point x="378" y="70"/>
      <point x="392" y="220" type="curve"/>
      <point x="272" y="220" type="line"/>
      <point x="267" y="170"/>
      <point x="242" y="140"/>
      <point x="209" y="140" type="curve" smooth="yes"/>
      <point x="162" y="140"/>
      <point x="134" y="200"/>
      <point x="134" y="300" type="curve" smooth="yes"/>
      <point x="134" y="400"/>
      <point x="162" y="460"/>
      <point x="209" y="460" type="curve" smooth="yes"/>
      <point x="242" y="460"/>
      <point x="267" y="430"/>
      <point x="272" y="380" type="curve"/>
      <point x="392" y="380" type="line"/>
      <point x="378" y="530"/>
      <point x="309" y="610"/>
      <point x="209" y="610" type="curve" smooth="yes"/>
      <point x="92" y="610"/>
      <point x="18" y="500"/>
      <point x="18" y="300" type="curve" smooth="yes"/>
      <point x="18" y="100"/>
      <point x="92" y="-10"/>
    </contour>
  </outline>
</glyph>
<glyph name="i" format="2">
  <advance width="200"/>
  <unicode hex="0069"/>
  <anchor x="165" y="0" name="ogonek"/>
  <outline>
    <contour>
      <point x="35" y="0" type="line"/>
      <point x="165" y="0" type="line"/>
      <point x="165" y="600" type="line"/>
      <point x="35" y="600" type="line"/>
    </contour>
    <contour>
      <point x="35" y="650" type="line"/>
      <point x="165" y="650" type="line"/>
      <point x="165" y="800" type="line"/>
      <point x="35" y="800" type="line"/>
    </contour>
  </outline>
</glyph>
<glyph name="k" format="2">
  <advance width="425"/>
  <unicode hex="006B"/>
  <anchor x="225" y="0" name="bottom"/>
  <outline>
    <contour>
      <point x="35" y="0" type="line"/>
      <point x="165" y="0" type="line"/>
      <point x="165" y="800" type="line"/>
      <point x="35" y="800" type="line"/>
    </contour>
    <contour>
      <point x="295" y="600" type="line"/>
      <point x="35" y="160" type="line"/>
      <point x="165" y="160" type="line"/>
      <point x="435" y="600" type="line"/>
    </contour>
    <contour>
      <point x="295" y="0" type="line"/>
      <point x="435" y="0" type="line"/>
      <point x="282" y="400" type="line"/>
      <point x="175" y="340" type="line"/>
    </contour>
  </outline>
</glyph>
<glyph name="n" format="2">
  <advance width="448"/>
  <unicode hex="006E"/>
  <anchor x="225" y="0" name="bottom"/>
  <anchor x="225" y="600" name="top"/>
  <outline>
    <contour>
      <point x="35" y="0" type="line"/>
      <point x="165" y="0" type="line"/>
      <point x="165" y="340" type="line" smooth="yes"/>
      <point x="165" y="410"/>
      <point x="190" y="450"/>
      <point x="230" y="450" type="curve" smooth="yes"/>
      <point x="270" y="450"/>
      <point x="285" y="410"/>
      <point x="285" y="340" type="curve" smooth="yes"/>
      <point x="285" y="0" type="line"/>
      <point x="415" y="0" type="line"/>
      <point x="415" y="380" type="line" smooth="yes"/>
      <point x="415" y="528"/>
      <point x="361" y="610"/>
      <point x="277" y="610" type="curve" smooth="yes"/>
      <point x="227" y="610"/>
      <point x="185" y="575"/>
      <point x="170" y="530" type="curve"/>
      <point x="165" y="530" type="line"/>
      <point x="165" y="600" type="line"/>
      <point x="35" y="600" type="line"/>
    </contour>
  </outline>
</glyph>
<glyph name="s" format="2">
  <advance width="378"/>
  <unicode hex="0073"/>
  <anchor x="191" y="600" name="top"/>
  <anchor x="191" y="0" name="bottom"/>
  <outline>
    <contour>
      <point x="16" y="184" type="line"/>
      <point x="16" y="74"/>
      <point x="81" y="-10"/>
      <point x="191" y="-10" type="curve" smooth="yes"/>
      <point x="301" y="-10"/>
      <point x="366" y="75"/>
      <point x="366" y="175" type="curve" smooth="yes"/>
      <point x="366" y="275"/>
      <point x="321" y="350"/>
      <point x="201" y="370" type="curve" smooth="yes"/>
      <point x="141" y="380"/>
      <point x="136" y="400"/>
      <point x="136" y="425" type="curve" smooth="yes"/>
      <point x="136" y="455"/>
      <point x="151" y="480"/>
      <point x="191" y="480" type="curve" smooth="yes"/>
      <point x="231" y="480"/>
      <point x="245" y="456"/>
      <point x="245" y="416" type="curve"/>
      <point x="361" y="416" type="line"/>
      <point x="361" y="526"/>
      <point x="301" y="610"/>
      <point x="191" y="610" type="curve" smooth="yes"/>
      <point x="81" y="610"/>
      <point x="21" y="525"/>
      <point x="21" y="425" type="curve" smooth="yes"/>
      <point x="21" y="325"/>
      <point x="61" y="250"/>
      <point x="181" y="230" type="curve" smooth="yes"/>
      <point x="241" y="220"/>
      <point x="250" y="200"/>
      <point x="250" y="175" type="curve" smooth="yes"/>
      <point x="250" y="145"/>
      <point x="231" y="120"/>
      <point x="191" y="120" type="curve" smooth="yes"/>
      <point x="151" y="120"/>
      <point x="132" y="144"/>
      <point x="132" y="184" type="curve"/>
    </contour>
  </outline>
</glyph>
<glyph name="u" format="2">
  <advance width="448"/>
  <unicode hex="0075"/>
  <anchor x="223" y="600" name="top"/>
  <anchor x="413" y="0" name="ogonek"/>
  <outline>
    <contour>
      <point x="413" y="600" type="line"/>
      <point x="283" y="600" type="line"/>
      <point x="283" y="260" type="line" smooth="yes"/>
      <point x="283" y="190"/>
      <point x="258" y="150"/>
      <point x="218" y="150" type="curve" smooth="yes"/>
      <point x="178" y="150"/>
      <point x="163" y="190"/>
      <point x="163" y="260" type="curve" smooth="yes"/>
      <point x="163" y="600" type="line"/>
      <point x="33" y="600" type="line"/>
      <point x="33" y="220" type="line" smooth="yes"/>
      <point x="33" y="72"/>
      <point x="87" y="-10"/>
      <point x="171" y="-10" type="curve" smooth="yes"/>
      <point x="221" y="-10"/>
      <point x="263" y="25"/>
      <point x="278" y="70" type="curve"/>
      <point x="283" y="70" type="line"/>
      <point x="283" y="0" type="line"/>
      <point x="413" y="0" type="line"/>
    </contour>
  </outline>
</glyph>
<glyph name="y" format="2">
  <advance width="400"/>
  <unicode hex="0079"/>
  <anchor x="200" y="600" name="top"/>
  <outline>
    <contour>
      <point x="60" y="-200" type="line"/>
      <point x="134" y="-200" type="line" smooth="yes"/>
      <point x="214" y="-200"/>
      <point x="238" y="-160"/>
      <point x="254" y="-80" type="curve" smooth="yes"/>
      <point x="270" y="0" type="line"/>
      <point x="400" y="600" type="line"/>
      <point x="272" y="600" type="line"/>
      <point x="214" y="300" type="line"/>
      <point x="205" y="240" type="line"/>
      <point x="199" y="240" type="line"/>
      <point x="190" y="300" type="line"/>
      <point x="132" y="600" type="line"/>
      <point x="0" y="600" type="line"/>
      <point x="130" y="0" type="line" smooth="yes"/>
      <point x="132" y="-10"/>
      <point x="134" y="-20"/>
      <point x="134" y="-30" type="curve" smooth="yes"/>
      <point x="134" y="-50"/>
      <point x="124" y="-60"/>
      <point x="104" y="-60" type="curve" smooth="yes"/>
      <point x="60" y="-60" type="line"/>
    </contour>
  </outline>
</glyph>
<glyph name="z" format="2">
  <advance width="360"/>
  <unicode hex="007A"/>
  <anchor x="185" y="600" name="top"/>
  <outline>
    <contour>
      <point x="20" y="0" type="line"/>
      <point x="340" y="0" type="line"/>
      <point x="340" y="140" type="line"/>
      <point x="165" y="140" type="line"/>
      <point x="340" y="460" type="line"/>
      <point x="340" y="600" type="line"/>
      <point x="30" y="600" type="line"/>
      <point x="30" y="460" type="line"/>
      <point x="195" y="460" type="line"/>
      <point x="20" y="140" type="line"/>
    </contour>
  </outline>
</glyph>
<glyph name="braceleft" format="2">
  <advance width="300"/>
  <unicode hex="007B"/>
  <outline>
    <contour>
      <point x="100" y="300" type="line"/>
      <point x="180" y="300"/>
      <point x="220" y="354"/>
      <point x="220" y="460" type="curve" smooth="yes"/>
      <point x="220" y="540" type="line" smooth="yes"/>
      <point x="220" y="580"/>
      <point x="235" y="600"/>
      <point x="265" y="600" type="curve" smooth="yes"/>
      <point x="290" y="600" type="line"/>
      <point x="290" y="750" type="line"/>
      <point x="250" y="750" type="line" smooth="yes"/>
      <point x="150" y="750"/>
      <point x="100" y="682"/>
      <point x="100" y="550" type="curve" smooth="yes"/>
      <point x="100" y="440" type="line" smooth="yes"/>
      <point x="100" y="400"/>
      <point x="85" y="380"/>
      <point x="55" y="380" type="curve" smooth="yes"/>
      <point x="40" y="380" type="line"/>
      <point x="40" y="220" type="line"/>
      <point x="55" y="220" type="line" smooth="yes"/>
      <point x="85" y="220"/>
      <point x="100" y="200"/>
      <point x="100" y="160" type="curve" smooth="yes"/>
      <point x="100" y="50" type="line" smooth="yes"/>
      <point x="100" y="-82"/>
      <point x="150" y="-150"/>
      <point x="250" y="-150" type="curve" smooth="yes"/>
      <point x="290" y="-150" type="line"/>
      <point x="290" y="0" type="line"/>
      <point x="265" y="0" type="line" smooth="yes"/>
      <point x="235" y="0"/>
      <point x="220" y="20"/>
      <point x="220" y="60" type="curve" smooth="yes"/>
      <point x="220" y="140" type="line" smooth="yes"/>
      <point x="220" y="246"/>
      <point x="180" y="300"/>
      <point x="100" y="300" type="curve"/>
    </contour>
    <contour>
      <point x="90" y="280" type="line"/>
      <point x="130" y="280" type="line"/>
      <point x="130" y="320" type="line"/>
      <point x="90" y="320" type="line"/>
    </contour>
  </outline>
</glyph>
<glyph name="bar" format="2">
  <advance width="220"/>
  <unicode hex="007C"/>
  <outline>
    <contour>
      <point x="50.0" y="-150.0" type="line"/>
      <point x="170.0" y="-150.0" type="line"/>
      <point x="170.0" y="750.0" type="line"/>
      <point x="50.0" y="750.0" type="line"/>
    </contour>
  </outline>
</glyph>
<glyph name="braceright" format="2">
  <advance width="300"/>
  <unicode hex="007D"/>
  <outline>
    <contour>
      <point x="200.0" y="300.0" type="curve"/>
      <point x="200.0" y="300.0" type="line"/>
      <point x="120.0" y="300.0"/>
      <point x="80.0" y="246.0"/>
      <point x="80.0" y="140.0" type="curve" smooth="yes"/>
      <point x="80.0" y="60.0" type="line" smooth="yes"/>
      <point x="80.0" y="20.0"/>
      <point x="65.0" y="0.0"/>
      <point x="35.0" y="0.0" type="curve" smooth="yes"/>
      <point x="10.0" y="0.0" type="line"/>
      <point x="10.0" y="-150.0" type="line"/>
      <point x="50.0" y="-150.0" type="line" smooth="yes"/>
      <point x="150.0" y="-150.0"/>
      <point x="200.0" y="-82.0"/>
      <point x="200.0" y="50.0" type="curve" smooth="yes"/>
      <point x="200.0" y="160.0" type="line" smooth="yes"/>
      <point x="200.0" y="200.0"/>
      <point x="215.0" y="220.0"/>
      <point x="245.0" y="220.0" type="curve" smooth="yes"/>
      <point x="260.0" y="220.0" type="line"/>
      <point x="260.0" y="380.0" type="line"/>
      <point x="245.0" y="380.0" type="line" smooth="yes"/>
      <point x="215.0" y="380.0"/>
      <point x="200.0" y="400.0"/>
      <point x="200.0" y="440.0" type="curve" smooth="yes"/>
      <point x="200.0" y="550.0" type="line" smooth="yes"/>
      <point x="200.0" y="682.0"/>
      <point x="150.0" y="750.0"/>
      <point x="50.0" y="750.0" type="curve" smooth="yes"/>
      <point x="10.0" y="750.0" type="line"/>
      <point x="10.0" y="600.0" type="line"/>
      <point x="35.0" y="600.0" type="line" smooth="yes"/>
      <point x="65.0" y="600.0"/>
      <point x="80.0" y="580.0"/>
      <point x="80.0" y="540.0" type="curve" smooth="yes"/>
      <point x="80.0" y="460.0" type="line" smooth="yes"/>
      <point x="80.0" y="354.0"/>
      <point x="120.0" y="300.0"/>
    </contour>
    <contour>
      <point x="210.0" y="280.0" type="line"/>
      <point x="210.0" y="320.0" type="line"/>
      <point x="170.0" y="320.0" type="line"/>
      <point x="170.0" y="280.0" type="line"/>
    </contour>
  </outline>
</glyph>
<glyph name="asciitilde" format="2">
  <advance width="450"/>
  <unicode hex="007E"/>
  <outline>
    <contour>
      <point x="25" y="280" type="curve" smooth="yes"/>
      <point x="25" y="230" type="line"/>
      <point x="135" y="230" type="line"/>
      <point x="135" y="280" type="line" smooth="yes"/>
      <point x="135" y="310"/>
      <point x="145" y="325"/>
      <point x="165" y="325" type="curve" smooth="yes"/>
      <point x="210" y="325"/>
      <point x="220" y="230"/>
      <point x="310" y="230" type="curve" smooth="yes"/>
      <point x="400" y="230"/>
      <point x="425" y="330"/>
      <point x="425" y="420" type="curve" smooth="yes"/>
      <point x="425" y="470" type="line"/>
      <point x="315" y="470" type="line"/>
      <point x="315" y="420" type="line" smooth="yes"/>
      <point x="315" y="390"/>
      <point x="305" y="375"/>
      <point x="285" y="375" type="curve" smooth="yes"/>
      <point x="240" y="375"/>
      <point x="230" y="470"/>
      <point x="140" y="470" type="curve" smooth="yes"/>
      <point x="50" y="470"/>
      <point x="25" y="370"/>
    </contour>
  </outline>
</glyph>
<glyph name="exclamdown" format="2">
  <advance width="200"/>
  <unicode hex="00A1"/>
  <outline>
    <contour>
      <point x="35" y="600" type="line"/>
      <point x="35" y="440" type="line"/>
      <point x="165" y="440" type="line"/>
      <point x="165" y="600" type="line"/>
    </contour>
    <contour>
      <point x="50" y="380" type="line"/>
      <point x="25" y="-200" type="line"/>
      <point x="175" y="-200" type="line"/>
      <point x="150" y="380" type="line"/>
    </contour>
  </outline>
</glyph>
<glyph name="cent" format="2">
  <advance width="450"/>
  <unicode hex="00A2"/>
  <outline>
    <contour>
      <point x="230" y="100" type="curve" smooth="yes"/>
      <point x="330" y="100"/>
      <point x="401" y="170"/>
      <point x="415" y="320" type="curve"/>
      <point x="295" y="320" type="line"/>
      <point x="290" y="270"/>
      <point x="265" y="240"/>
      <point x="230" y="240" type="curve" smooth="yes"/>
      <point x="183" y="240"/>
      <point x="155" y="300"/>
      <point x="155" y="400" type="curve" smooth="yes"/>
      <point x="155" y="500"/>
      <point x="183" y="560"/>
      <point x="230" y="560" type="curve" smooth="yes"/>
      <point x="265" y="560"/>
      <point x="290" y="530"/>
      <point x="295" y="480" type="curve"/>
      <point x="415" y="480" type="line"/>
      <point x="401" y="630"/>
      <point x="330" y="700"/>
      <point x="230" y="700" type="curve" smooth="yes"/>
      <point x="113" y="700"/>
      <point x="40" y="600"/>
      <point x="40" y="400" type="curve" smooth="yes"/>
      <point x="40" y="200"/>
      <point x="113" y="100"/>
    </contour>
    <contour>
      <point x="210" y="-10" type="line"/>
      <point x="250" y="-10" type="line"/>
      <point x="250" y="810" type="line"/>
      <point x="210" y="810" type="line"/>
    </contour>
  </outline>
</glyph>
<glyph name="sterling" format="2">
  <advance width="450"/>
  <unicode hex="00A3"/>
  <outline>
    <contour>
      <point x="265" y="240" type="curve" smooth="yes"/>
      <point x="265" y="360"/>
      <point x="175" y="430"/>
      <point x="175" y="550" type="curve" smooth="yes"/>
      <point x="175" y="604"/>
      <point x="199" y="640"/>
      <point x="235" y="640" type="curve" smooth="yes"/>
      <point x="271" y="640"/>
      <point x="295" y="604"/>
      <point x="295" y="520" type="curve"/>
      <point x="420" y="520" type="line"/>
      <point x="420" y="706"/>
      <point x="346" y="810"/>
      <point x="235" y="810" type="curve" smooth="yes"/>
      <point x="124" y="810"/>
      <point x="50" y="706"/>
      <point x="50" y="550" type="curve" smooth="yes"/>
      <point x="50" y="370"/>
      <point x="140" y="340"/>
      <point x="140" y="250" type="curve" smooth="yes"/>
      <point x="140" y="190"/>
      <point x="110" y="160"/>
      <point x="50" y="160" type="curve"/>
      <point x="30" y="160" type="line"/>
      <point x="30" y="0" type="line"/>
      <point x="420" y="0" type="line"/>
      <point x="420" y="160" type="line"/>
      <point x="180" y="160" type="line"/>
      <point x="145" y="120" type="line"/>
      <point x="217" y="120"/>
      <point x="265" y="168"/>
    </contour>
    <contour>
      <point x="400" y="300" type="line"/>
      <point x="400" y="390" type="line"/>
      <point x="30" y="390" type="line"/>
      <point x="30" y="300" type="line"/>
    </contour>
  </outline>
</glyph>
<glyph name="copyright" format="2">
  <advance width="600"/>
  <unicode hex="00A9"/>
  <outline>
    <contour>
      <point x="300" y="-10" type="curve" smooth="yes"/>
      <point x="462" y="-10"/>
      <point x="570" y="154"/>
      <point x="570" y="400" type="curve" smooth="yes"/>
      <point x="570" y="646"/>
      <point x="462" y="810"/>
      <point x="300" y="810" type="curve" smooth="yes"/>
      <point x="138" y="810"/>
      <point x="30" y="646"/>
      <point x="30" y="400" type="curve" smooth="yes"/>
      <point x="30" y="154"/>
      <point x="138" y="-10"/>
    </contour>
    <contour>
      <point x="300" y="100" type="curve" smooth="yes"/>
      <point x="186" y="100"/>
      <point x="110" y="220"/>
      <point x="110" y="400" type="curve" smooth="yes"/>
      <point x="110" y="580"/>
      <point x="186" y="700"/>
      <point x="300" y="700" type="curve" smooth="yes"/>
      <point x="414" y="700"/>
      <point x="490" y="580"/>
      <point x="490" y="400" type="curve" smooth="yes"/>
      <point x="490" y="220"/>
      <point x="414" y="100"/>
    </contour>
    <contour>
      <point x="300" y="190" type="curve" smooth="yes"/>
      <point x="370" y="190"/>
      <point x="415" y="250"/>
      <point x="425" y="350" type="curve"/>
      <point x="340" y="350" type="line"/>
      <point x="337" y="317"/>
      <point x="322" y="300"/>
      <point x="300" y="300" type="curve" smooth="yes"/>
      <point x="268" y="300"/>
      <point x="250" y="336"/>
      <point x="250" y="400" type="curve" smooth="yes"/>
      <point x="250" y="464"/>
      <point x="268" y="500"/>
      <point x="300" y="500" type="curve" smooth="yes"/>
      <point x="322" y="500"/>
      <point x="337" y="483"/>
      <point x="340" y="450" type="curve"/>
      <point x="425" y="450" type="line"/>
      <point x="415" y="550"/>
      <point x="370" y="610"/>
      <point x="300" y="610" type="curve" smooth="yes"/>
      <point x="220" y="610"/>
      <point x="170" y="532"/>
      <point x="170" y="400" type="curve" smooth="yes"/>
      <point x="170" y="268"/>
      <point x="220" y="190"/>
    </contour>
  </outline>
</glyph>
<glyph name="guillemetleft" format="2">
  <advance width="570"/>
  <unicode hex="00AB"/>
  <outline>
    <contour>
      <point x="270.0" y="580.0" type="line"/>
      <point x="30.0" y="380.0" type="line"/>
      <point x="30.0" y="232.0" type="line"/>
      <point x="270.0" y="422.0" type="line"/>
    </contour>
    <contour>
      <point x="270.0" y="182.0" type="line"/>
      <point x="30.0" y="372.0" type="line"/>
      <point x="30.0" y="220.0" type="line"/>
      <point x="270.0" y="20.0" type="line"/>
    </contour>
    <contour>
      <point x="540.0" y="580.0" type="line"/>
      <point x="300.0" y="380.0" type="line"/>
      <point x="300.0" y="232.0" type="line"/>
      <point x="540.0" y="422.0" type="line"/>
    </contour>
    <contour>
      <point x="540.0" y="182.0" type="line"/>
      <point x="300.0" y="372.0" type="line"/>
      <point x="300.0" y="220.0" type="line"/>
      <point x="540.0" y="20.0" type="line"/>
    </contour>
  </outline>
</glyph>
<glyph name="registered" format="2">
  <advance width="600"/>
  <unicode hex="00AE"/>
  <outline>
    <contour>
      <point x="300" y="-10" type="curve" smooth="yes"/>
      <point x="462" y="-10"/>
      <point x="570" y="154"/>
      <point x="570" y="400" type="curve" smooth="yes"/>
      <point x="570" y="646"/>
      <point x="462" y="810"/>
      <point x="300" y="810" type="curve" smooth="yes"/>
      <point x="138" y="810"/>
      <point x="30" y="646"/>
      <point x="30" y="400" type="curve" smooth="yes"/>
      <point x="30" y="154"/>
      <point x="138" y="-10"/>
    </contour>
    <contour>
      <point x="300" y="100" type="curve" smooth="yes"/>
      <point x="186" y="100"/>
      <point x="110" y="220"/>
      <point x="110" y="400" type="curve" smooth="yes"/>
      <point x="110" y="580"/>
      <point x="186" y="700"/>
      <point x="300" y="700" type="curve" smooth="yes"/>
      <point x="414" y="700"/>
      <point x="490" y="580"/>
      <point x="490" y="400" type="curve" smooth="yes"/>
      <point x="490" y="220"/>
      <point x="414" y="100"/>
    </contour>
    <contour>
      <point x="270" y="420" type="line"/>
      <point x="270" y="510" type="line"/>
      <point x="310" y="510" type="line" smooth="yes"/>
      <point x="340" y="510"/>
      <point x="350" y="495"/>
      <point x="350" y="465" type="curve" smooth="yes"/>
      <point x="350" y="435"/>
      <point x="340" y="420"/>
      <point x="310" y="420" type="curve" smooth="yes"/>
    </contour>
    <contour>
      <point x="310" y="360" type="line"/>
      <point x="390" y="360"/>
      <point x="430" y="400"/>
      <point x="430" y="480" type="curve" smooth="yes"/>
      <point x="430" y="560"/>
      <point x="390" y="600"/>
      <point x="310" y="600" type="curve" smooth="yes"/>
      <point x="190" y="600" type="line"/>
      <point x="190" y="200" type="line"/>
      <point x="270" y="200" type="line"/>
      <point x="270" y="330" type="line"/>
      <point x="300" y="330" type="line" smooth="yes"/>
      <point x="330" y="330"/>
      <point x="340" y="320"/>
      <point x="340" y="290" type="curve" smooth="yes"/>
      <point x="340" y="250" type="line" smooth="yes"/>
      <point x="340" y="234"/>
      <point x="341" y="216"/>
      <point x="346" y="200" type="curve"/>
      <point x="428" y="200" type="line"/>
      <point x="422" y="216"/>
      <point x="420" y="234"/>
      <point x="420" y="250" type="curve" smooth="yes"/>
      <point x="420" y="290" type="line" smooth="yes"/>
      <point x="420" y="362"/>
      <point x="382" y="400"/>
      <point x="310" y="400" type="curve"/>
    </contour>
  </outline>
</glyph>
<glyph name="ordmasculine" format="2">
  <advance width="300"/>
  <unicode hex="00BA"/>
  <outline>
    <contour>
      <point x="20" y="600" type="curve" smooth="yes"/>
      <point x="20" y="468"/>
      <point x="70" y="390"/>
      <point x="150" y="390" type="curve" smooth="yes"/>
      <point x="230" y="390"/>
      <point x="280" y="468"/>
      <point x="280" y="600" type="curve" smooth="yes"/>
      <point x="280" y="732"/>
      <point x="230" y="810"/>
      <point x="150" y="810" type="curve" smooth="yes"/>
      <point x="70" y="810"/>
      <point x="20" y="732"/>
    </contour>
    <contour>
      <point x="100" y="600" type="curve" smooth="yes"/>
      <point x="100" y="664"/>
      <point x="118" y="700"/>
      <point x="150" y="700" type="curve" smooth="yes"/>
      <point x="182" y="700"/>
      <point x="200" y="664"/>
      <point x="200" y="600" type="curve" smooth="yes"/>
      <point x="200" y="536"/>
      <point x="182" y="500"/>
      <point x="150" y="500" type="curve" smooth="yes"/>
      <point x="118" y="500"/>
      <point x="100" y="536"/>
    </contour>
  </outline>
</glyph>
<glyph name="guillemetright" format="2">
  <advance width="570"/>
  <unicode hex="00BB"/>
  <outline>
    <contour>
      <point x="300" y="20" type="line"/>
      <point x="540" y="220" type="line"/>
      <point x="540" y="368" type="line"/>
      <point x="300" y="178" type="line"/>
    </contour>
    <contour>
      <point x="300" y="418" type="line"/>
      <point x="540" y="228" type="line"/>
      <point x="540" y="380" type="line"/>
      <point x="300" y="580" type="line"/>
    </contour>
    <contour>
      <point x="30" y="20" type="line"/>
      <point x="270" y="220" type="line"/>
      <point x="270" y="368" type="line"/>
      <point x="30" y="178" type="line"/>
    </contour>
    <contour>
      <point x="30" y="418" type="line"/>
      <point x="270" y="228" type="line"/>
      <point x="270" y="380" type="line"/>
      <point x="30" y="580" type="line"/>
    </contour>
  </outline>
</glyph>
<glyph name="multiply" format="2">
  <advance width="450"/>
  <unicode hex="00D7"/>
  <outline>
    <contour>
      <point x="330" y="95" type="line"/>
      <point x="420" y="155" type="line"/>
      <point x="120" y="605" type="line"/>
      <point x="30" y="545" type="line"/>
    </contour>
    <contour>
      <point x="120" y="95" type="line"/>
      <point x="420" y="545" type="line"/>
      <point x="330" y="605" type="line"/>
      <point x="30" y="155" type="line"/>
    </contour>
  </outline>
</glyph>
<glyph name="Thorn" format="2">
  <advance width="470"/>
  <unicode hex="00DE"/>
  <outline>
    <contour>
      <point x="172" y="310" type="line"/>
      <point x="172" y="510" type="line"/>
      <point x="234" y="510" type="line" smooth="yes"/>
      <point x="300" y="510"/>
      <point x="334" y="476"/>
      <point x="334" y="410" type="curve" smooth="yes"/>
      <point x="334" y="344"/>
      <point x="300" y="310"/>
      <point x="234" y="310" type="curve" smooth="yes"/>
    </contour>
    <contour>
      <point x="40" y="0" type="line"/>
      <point x="172" y="0" type="line"/>
      <point x="172" y="150" type="line"/>
      <point x="234" y="150" type="line" smooth="yes"/>
      <point x="382" y="150"/>
      <point x="460" y="238"/>
      <point x="460" y="410" type="curve" smooth="yes"/>
      <point x="460" y="582"/>
      <point x="382" y="670"/>
      <point x="234" y="670" type="curve" smooth="yes"/>
      <point x="172" y="670" type="line"/>
      <point x="172" y="800" type="line"/>
      <point x="40" y="800" type="line"/>
    </contour>
  </outline>
</glyph>
<glyph name="ae" format="2">
  <advance width="692"/>
  <unicode hex="00E6"/>
  <outline>
    <contour>
      <point x="670" y="240" type="line"/>
      <point x="671" y="260"/>
      <point x="672" y="280"/>
      <point x="672" y="300" type="curve" smooth="yes"/>
      <point x="672" y="500"/>
      <point x="602" y="610"/>
      <point x="492" y="610" type="curve" smooth="yes"/>
      <point x="382" y="610"/>
      <point x="306" y="500"/>
      <point x="306" y="300" type="curve" smooth="yes"/>
      <point x="306" y="100"/>
      <point x="382" y="-10"/>
      <point x="492" y="-10" type="curve" smooth="yes"/>
      <point x="575" y="-10"/>
      <point x="642" y="56"/>
      <point x="662" y="180" type="curve"/>
      <point x="544" y="180" type="line"/>
      <point x="534" y="144"/>
      <point x="512" y="120"/>
      <point x="482" y="120" type="curve" smooth="yes"/>
      <point x="428" y="120"/>
      <point x="397" y="188"/>
      <point x="397" y="300" type="curve" smooth="yes"/>
      <point x="397" y="412"/>
      <point x="428" y="480"/>
      <point x="482" y="480" type="curve" smooth="yes"/>
      <point x="535" y="480"/>
      <point x="560" y="412"/>
      <point x="560" y="300" type="curve"/>
      <point x="642" y="370" type="line"/>
      <point x="362" y="370" type="line"/>
      <point x="362" y="240" type="line"/>
    </contour>
    <contour>
      <point x="278" y="270" type="curve"/>
      <point x="278" y="170"/>
      <point x="238" y="120"/>
      <point x="188" y="120" type="curve" smooth="yes"/>
      <point x="158" y="120"/>
      <point x="138" y="140"/>
      <point x="138" y="170" type="curve" smooth="yes"/>
      <point x="138" y="240"/>
      <point x="218" y="240"/>
    </contour>
    <contour>
      <point x="368" y="400" type="line"/>
      <point x="368" y="540"/>
      <point x="298" y="610"/>
      <point x="208" y="610" type="curve" smooth="yes"/>
      <point x="118" y="610"/>
      <point x="38" y="540"/>
      <point x="28" y="400" type="curve"/>
      <point x="148" y="400" type="line"/>
      <point x="153" y="450"/>
      <point x="182" y="480"/>
      <point x="218" y="480" type="curve" smooth="yes"/>
      <point x="254" y="480"/>
      <point x="278" y="456"/>
      <point x="278" y="420" type="curve" smooth="yes"/>
      <point x="278" y="320"/>
      <point x="18" y="410"/>
      <point x="18" y="170" type="curve" smooth="yes"/>
      <point x="18" y="50"/>
      <point x="88" y="-10"/>
      <point x="178" y="-10" type="curve" smooth="yes"/>
      <point x="268" y="-10"/>
      <point x="338" y="50"/>
      <point x="348" y="170" type="curve"/>
    </contour>
  </outline>
</glyph>
<glyph name="eth" format="2">
  <advance width="428"/>
  <unicode hex="00F0"/>
  <outline>
    <contour>
      <point x="410" y="300" type="curve" smooth="yes"/>
      <point x="410" y="500"/>
      <point x="320" y="700"/>
      <point x="220" y="800" type="curve"/>
      <point x="90" y="800" type="line"/>
      <point x="150" y="740"/>
      <point x="208" y="653"/>
      <point x="248" y="573" type="curve"/>
      <point x="244" y="570" type="line"/>
      <point x="224" y="590"/>
      <point x="204" y="600"/>
      <point x="174" y="600" type="curve" smooth="yes"/>
      <point x="99" y="600"/>
      <point x="18" y="500"/>
      <point x="18" y="300" type="curve" smooth="yes"/>
      <point x="18" y="100"/>
      <point x="94" y="-10"/>
      <point x="214" y="-10" type="curve" smooth="yes"/>
      <point x="334" y="-10"/>
      <point x="410" y="100"/>
    </contour>
    <contour>
      <point x="134" y="300" type="curve" smooth="yes"/>
      <point x="134" y="400"/>
      <point x="164" y="460"/>
      <point x="214" y="460" type="curve" smooth="yes"/>
      <point x="264" y="460"/>
      <point x="294" y="400"/>
      <point x="294" y="300" type="curve" smooth="yes"/>
      <point x="294" y="200"/>
      <point x="264" y="140"/>
      <point x="214" y="140" type="curve" smooth="yes"/>
      <point x="164" y="140"/>
      <point x="134" y="200"/>
    </contour>
    <contour>
      <point x="100" y="610" type="line"/>
      <point x="350" y="700" type="line"/>
      <point x="350" y="800" type="line"/>
      <point x="100" y="710" type="line"/>
    </contour>
  </outline>
</glyph>
<glyph name="oslash" format="2">
  <advance width="428"/>
  <unicode hex="00F8"/>
  <outline>
    <contour>
      <point x="18" y="300" type="curve" smooth="yes"/>
      <point x="18" y="100"/>
      <point x="94" y="-10"/>
      <point x="214" y="-10" type="curve" smooth="yes"/>
      <point x="334" y="-10"/>
      <point x="410" y="100"/>
      <point x="410" y="300" type="curve" smooth="yes"/>
      <point x="410" y="500"/>
      <point x="334" y="610"/>
      <point x="214" y="610" type="curve" smooth="yes"/>
      <point x="94" y="610"/>
      <point x="18" y="500"/>
    </contour>
    <contour>
      <point x="128" y="300" type="curve" smooth="yes"/>
      <point x="128" y="400"/>
      <point x="160" y="460"/>
      <point x="214" y="460" type="curve" smooth="yes"/>
      <point x="268" y="460"/>
      <point x="300" y="400"/>
      <point x="300" y="300" type="curve" smooth="yes"/>
      <point x="300" y="200"/>
      <point x="268" y="140"/>
      <point x="214" y="140" type="curve" smooth="yes"/>
      <point x="160" y="140"/>
      <point x="128" y="200"/>
    </contour>
    <contour>
      <point x="88" y="-32" type="line"/>
      <point x="404" y="600" type="line"/>
      <point x="340" y="632" type="line"/>
      <point x="24" y="0" type="line"/>
    </contour>
  </outline>
</glyph>
<glyph name="Dcroat" format="2">
  <advance width="536"/>
  <unicode hex="0110"/>
  <outline>
    <contour>
      <point x="60" y="0" type="line"/>
      <point x="266" y="0" type="line" smooth="yes"/>
      <point x="420" y="0"/>
      <point x="512" y="144"/>
      <point x="512" y="400" type="curve" smooth="yes"/>
      <point x="512" y="656"/>
      <point x="420" y="800"/>
      <point x="266" y="800" type="curve" smooth="yes"/>
      <point x="60" y="800" type="line"/>
    </contour>
    <contour>
      <point x="266" y="640" type="line" smooth="yes"/>
      <point x="341" y="640"/>
      <point x="386" y="550"/>
      <point x="386" y="400" type="curve" smooth="yes"/>
      <point x="386" y="250"/>
      <point x="341" y="160"/>
      <point x="266" y="160" type="curve" smooth="yes"/>
      <point x="192" y="160" type="line"/>
      <point x="192" y="640" type="line"/>
    </contour>
    <contour>
      <point x="10" y="340" type="line"/>
      <point x="262" y="340" type="line"/>
      <point x="262" y="460" type="line"/>
      <point x="10" y="460" type="line"/>
    </contour>
  </outline>
</glyph>
<glyph name="eogonek" format="2">
  <advance width="424"/>
  <unicode hex="0119"/>
  <outline>
    <contour>
      <point x="224" y="0" type="line"/>
      <point x="204" y="-20"/>
      <point x="194" y="-30"/>
      <point x="194" y="-50" type="curve" smooth="yes"/>
      <point x="194" y="-80"/>
      <point x="214" y="-100"/>
      <point x="254" y="-100" type="curve" smooth="yes"/>
      <point x="304" y="-100" type="line"/>
      <point x="314" y="-50" type="line"/>
      <point x="299" y="-50" type="line" smooth="yes"/>
      <point x="284" y="-50"/>
      <point x="274" y="-45"/>
      <point x="274" y="-30" type="curve" smooth="yes"/>
      <point x="274" y="-20"/>
      <point x="279" y="-10"/>
      <point x="309" y="20" type="curve" smooth="yes"/>
      <point x="345" y="56"/>
      <point x="382" y="104"/>
      <point x="394" y="180" type="curve"/>
      <point x="276" y="180" type="line"/>
      <point x="266" y="144"/>
      <point x="244" y="120"/>
      <point x="214" y="120" type="curve" smooth="yes"/>
      <point x="160" y="120"/>
      <point x="129" y="188"/>
      <point x="129" y="300" type="curve" smooth="yes"/>
      <point x="129" y="412"/>
      <point x="160" y="480"/>
      <point x="214" y="480" type="curve" smooth="yes"/>
      <point x="267" y="480"/>
      <point x="292" y="412"/>
      <point x="292" y="300" type="curve"/>
      <point x="374" y="370" type="line"/>
      <point x="94" y="370" type="line"/>
      <point x="94" y="240" type="line"/>
      <point x="402" y="240" type="line"/>
      <point x="403" y="260"/>
      <point x="404" y="280"/>
      <point x="404" y="300" type="curve" smooth="yes"/>
      <point x="404" y="500"/>
      <point x="334" y="610"/>
      <point x="214" y="610" type="curve" smooth="yes"/>
      <point x="94" y="610"/>
      <point x="18" y="500"/>
      <point x="18" y="300" type="curve" smooth="yes"/>
      <point x="18" y="100"/>
      <point x="94" y="-10"/>
      <point x="214" y="-10" type="curve"/>
      <point x="234" y="-10" type="line"/>
    </contour>
  </outline>
</glyph>
<glyph name="gcommaaccent" format="2">
  <advance width="456"/>
  <unicode hex="0123"/>
  <outline>
    <contour>
      <point x="270" y="650" type="line"/>
      <point x="270" y="700"/>
      <point x="290" y="720"/>
      <point x="340" y="720" type="curve"/>
      <point x="340" y="800" type="line"/>
      <point x="240" y="800"/>
      <point x="200" y="750"/>
      <point x="200" y="650" type="curve"/>
    </contour>
    <component base="g"/>
  </outline>
</glyph>
<glyph name="hbar" format="2">
  <advance width="448"/>
  <unicode hex="0127"/>
  <outline>
    <contour>
      <point x="35" y="0" type="line"/>
      <point x="165" y="0" type="line"/>
      <point x="165" y="340" type="line" smooth="yes"/>
      <point x="165" y="410"/>
      <point x="190" y="450"/>
      <point x="230" y="450" type="curve" smooth="yes"/>
      <point x="270" y="450"/>
      <point x="285" y="410"/>
      <point x="285" y="340" type="curve" smooth="yes"/>
      <point x="285" y="0" type="line"/>
      <point x="415" y="0" type="line"/>
      <point x="415" y="380" type="line" smooth="yes"/>
      <point x="415" y="528"/>
      <point x="361" y="610"/>
      <point x="277" y="610" type="curve" smooth="yes"/>
      <point x="227" y="610"/>
      <point x="185" y="575"/>
      <point x="170" y="530" type="curve"/>
      <point x="165" y="530" type="line"/>
      <point x="165" y="800" type="line"/>
      <point x="35" y="800" type="line"/>
    </contour>
    <contour>
      <point x="-25" y="650" type="line"/>
      <point x="255" y="650" type="line"/>
      <point x="255" y="760" type="line"/>
      <point x="-25" y="760" type="line"/>
    </contour>
  </outline>
</glyph>
<glyph name="dotlessi" format="2">
  <advance width="200"/>
  <unicode hex="0131"/>
  <anchor x="100" y="600" name="top"/>
  <outline>
    <contour>
      <point x="35" y="0" type="line"/>
      <point x="165" y="0" type="line"/>
      <point x="165" y="600" type="line"/>
      <point x="35" y="600" type="line"/>
    </contour>
  </outline>
</glyph>
<glyph name="IJ" format="2">
  <advance width="500"/>
  <unicode hex="0132"/>
  <outline>
    <contour>
      <point x="38" y="400" type="line"/>
      <point x="170" y="400" type="line"/>
      <point x="170" y="800" type="line"/>
      <point x="38" y="800" type="line"/>
    </contour>
    <contour>
      <point x="38" y="300" type="line"/>
      <point x="38" y="120"/>
      <point x="100" y="-10"/>
      <point x="250" y="-10" type="curve" smooth="yes"/>
      <point x="400" y="-10"/>
      <point x="462" y="120"/>
      <point x="462" y="300" type="curve" smooth="yes"/>
      <point x="462" y="800" type="line"/>
      <point x="330" y="800" type="line"/>
      <point x="330" y="300" type="line" smooth="yes"/>
      <point x="330" y="220"/>
      <point x="310" y="160"/>
      <point x="250" y="160" type="curve" smooth="yes"/>
      <point x="190" y="160"/>
      <point x="170" y="220"/>
      <point x="170" y="300" type="curve"/>
    </contour>
  </outline>
</glyph>
<glyph name="lslash" format="2">
  <advance width="270"/>
  <unicode hex="0142"/>
  <outline>
    <contour>
      <point x="70" y="0" type="line"/>
      <point x="200" y="0" type="line"/>
      <point x="200" y="800" type="line"/>
      <point x="70" y="800" type="line"/>
    </contour>
    <contour>
      <point x="10" y="220" type="line"/>
      <point x="260" y="430" type="line"/>
      <point x="260" y="580" type="line"/>
      <point x="10" y="370" type="line"/>
    </contour>
  </outline>
</glyph>
<glyph name="oe" format="2">
  <advance width="696"/>
  <unicode hex="0153"/>
  <outline>
    <contour>
      <point x="674" y="240" type="line"/>
      <point x="675" y="260"/>
      <point x="676" y="280"/>
      <point x="676" y="300" type="curve" smooth="yes"/>
      <point x="676" y="500"/>
      <point x="606" y="610"/>
      <point x="496" y="610" type="curve" smooth="yes"/>
      <point x="386" y="610"/>
      <point x="310" y="500"/>
      <point x="310" y="300" type="curve" smooth="yes"/>
      <point x="310" y="100"/>
      <point x="386" y="-10"/>
      <point x="496" y="-10" type="curve" smooth="yes"/>
      <point x="579" y="-10"/>
      <point x="646" y="56"/>
      <point x="666" y="180" type="curve"/>
      <point x="548" y="180" type="line"/>
      <point x="538" y="144"/>
      <point x="516" y="120"/>
      <point x="486" y="120" type="curve" smooth="yes"/>
      <point x="432" y="120"/>
      <point x="401" y="188"/>
      <point x="401" y="300" type="curve" smooth="yes"/>
      <point x="401" y="412"/>
      <point x="432" y="480"/>
      <point x="486" y="480" type="curve" smooth="yes"/>
      <point x="539" y="480"/>
      <point x="564" y="412"/>
      <point x="564" y="300" type="curve"/>
      <point x="646" y="370" type="line"/>
      <point x="366" y="370" type="line"/>
      <point x="366" y="240" type="line"/>
    </contour>
    <contour>
      <point x="18" y="300" type="curve" smooth="yes"/>
      <point x="18" y="100"/>
      <point x="94" y="-10"/>
      <point x="204" y="-10" type="curve" smooth="yes"/>
      <point x="314" y="-10"/>
      <point x="390" y="100"/>
      <point x="390" y="300" type="curve" smooth="yes"/>
      <point x="390" y="500"/>
      <point x="314" y="610"/>
      <point x="204" y="610" type="curve" smooth="yes"/>
      <point x="94" y="610"/>
      <point x="18" y="500"/>
    </contour>
    <contour>
      <point x="134" y="300" type="curve" smooth="yes"/>
      <point x="134" y="400"/>
      <point x="164" y="460"/>
      <point x="214" y="460" type="curve" smooth="yes"/>
      <point x="264" y="460"/>
      <point x="294" y="400"/>
      <point x="294" y="300" type="curve" smooth="yes"/>
      <point x="294" y="200"/>
      <point x="264" y="140"/>
      <point x="214" y="140" type="curve" smooth="yes"/>
      <point x="164" y="140"/>
      <point x="134" y="200"/>
    </contour>
  </outline>
</glyph>
<glyph name="Racute" format="2">
  <advance width="486"/>
  <unicode hex="0154"/>
  <outline>
    <contour>
      <point x="222" y="700" type="line"/>
      <point x="350" y="900" type="line"/>
      <point x="200" y="900" type="line"/>
      <point x="108" y="700" type="line"/>
    </contour>
    <contour>
      <point x="172" y="460" type="line"/>
      <point x="172" y="640" type="line"/>
      <point x="254" y="640" type="line" smooth="yes"/>
      <point x="314" y="640"/>
      <point x="344" y="610"/>
      <point x="344" y="550" type="curve" smooth="yes"/>
      <point x="344" y="490"/>
      <point x="314" y="460"/>
      <point x="254" y="460" type="curve" smooth="yes"/>
    </contour>
    <contour>
      <point x="40" y="0" type="line"/>
      <point x="172" y="0" type="line"/>
      <point x="172" y="310" type="line"/>
      <point x="239" y="310" type="line" smooth="yes"/>
      <point x="292" y="310"/>
      <point x="319" y="283"/>
      <point x="319" y="230" type="curve" smooth="yes"/>
      <point x="319" y="90" type="line" smooth="yes"/>
      <point x="319" y="60"/>
      <point x="322" y="30"/>
      <point x="331" y="0" type="curve"/>
      <point x="466" y="0" type="line"/>
      <point x="456" y="30"/>
      <point x="451" y="60"/>
      <point x="451" y="90" type="curve" smooth="yes"/>
      <point x="451" y="230" type="line" smooth="yes"/>
      <point x="451" y="362"/>
      <point x="383" y="430"/>
      <point x="251" y="430" type="curve"/>
      <point x="254" y="350" type="line"/>
      <point x="398" y="350"/>
      <point x="470" y="430"/>
      <point x="470" y="570" type="curve" smooth="yes"/>
      <point x="470" y="720"/>
      <point x="398" y="800"/>
      <point x="254" y="800" type="curve" smooth="yes"/>
      <point x="40" y="800" type="line"/>
    </contour>
  </outline>
</glyph>
<glyph name="tcedilla" format="2">
  <advance width="290"/>
  <unicode hex="0163"/>
  <outline>
    <contour>
      <point x="240" y="0" type="line"/>
      <point x="160" y="50" type="line"/>
      <point x="100" y="-100" type="line"/>
      <point x="220" y="-100" type="line"/>
    </contour>
    <component base="t"/>
  </outline>
</glyph>
<glyph name="dotlessj" format="2">
  <advance width="200"/>
  <unicode hex="0237"/>
  <anchor x="100" y="600" name="top"/>
  <outline>
    <contour>
      <point x="-25" y="-200" type="line"/>
      <point x="45" y="-200" type="line" smooth="yes"/>
      <point x="125" y="-200"/>
      <point x="165" y="-160"/>
      <point x="165" y="-80" type="curve" smooth="yes"/>
      <point x="165" y="600" type="line"/>
      <point x="35" y="600" type="line"/>
      <point x="35" y="-40" type="line" smooth="yes"/>
      <point x="35" y="-55"/>
      <point x="30" y="-60"/>
      <point x="15" y="-60" type="curve" smooth="yes"/>
      <point x="-25" y="-60" type="line"/>
    </contour>
  </outline>
</glyph>
<glyph name="Wacute" format="2">
  <advance width="720"/>
  <unicode hex="1E82"/>
  <outline>
    <contour>
      <point x="270" y="800" type="line"/>
      <point x="216" y="320" type="line"/>
      <point x="208" y="240" type="line"/>
      <point x="202" y="240" type="line"/>
      <point x="194" y="320" type="line"/>
      <point x="140" y="800" type="line"/>
      <point x="0" y="800" type="line"/>
      <point x="110" y="0" type="line"/>
      <point x="290" y="0" type="line"/>
      <point x="349" y="480" type="line"/>
      <point x="357" y="560" type="line"/>
      <point x="363" y="560" type="line"/>
      <point x="371" y="480" type="line"/>
      <point x="430" y="0" type="line"/>
      <point x="610" y="0" type="line"/>
      <point x="720" y="800" type="line"/>
      <point x="580" y="800" type="line"/>
      <point x="526" y="320" type="line"/>
      <point x="518" y="240" type="line"/>
      <point x="512" y="240" type="line"/>
      <point x="504" y="320" type="line"/>
      <point x="450" y="800" type="line"/>
    </contour>
    <contour>
      <point x="300" y="800" type="line"/>
      <point x="420" y="800" type="line"/>
      <point x="490" y="900" type="line"/>
      <point x="340" y="900" type="line"/>
    </contour>
  </outline>
</glyph>
<glyph name="endash" format="2">
  <advance width="400"/>
  <unicode hex="2013"/>
  <outline>
    <contour>
      <point x="365" y="375" type="line"/>
      <point x="35" y="375" type="line"/>
      <point x="35" y="225" type="line"/>
      <point x="365" y="225" type="line"/>
    </contour>
  </outline>
</glyph>
<glyph name="emdash" format="2">
  <advance width="800"/>
  <unicode hex="2014"/>
  <outline>
    <contour>
      <point x="765.0" y="375.0" type="line"/>
      <point x="35.0" y="375.0" type="line"/>
      <point x="35.0" y="225.0" type="line"/>
      <point x="765.0" y="225.0" type="line"/>
    </contour>
  </outline>
</glyph>
<glyph name="quoteleft" format="2">
  <advance width="200"/>
  <unicode hex="2018"/>
  <outline>
    <contour>
      <point x="165" y="650" type="line"/>
      <point x="105" y="650" type="line"/>
      <point x="105" y="650" type="line"/>
      <point x="105" y="695"/>
      <point x="120" y="720"/>
      <point x="165" y="720" type="curve"/>
      <point x="165" y="800" type="line"/>
      <point x="80" y="800"/>
      <point x="35" y="750"/>
      <point x="35" y="650" type="curve"/>
      <point x="35" y="490" type="line"/>
      <point x="165" y="490" type="line"/>
    </contour>
  </outline>
</glyph>
<glyph name="quotedblbase" format="2">
  <advance width="365"/>
  <unicode hex="201E"/>
  <outline>
    <contour>
      <point x="205" y="0" type="line"/>
      <point x="265" y="0" type="line"/>
      <point x="265" y="0" type="line"/>
      <point x="265" y="-45"/>
      <point x="250" y="-70"/>
      <point x="205" y="-70" type="curve"/>
      <point x="205" y="-150" type="line"/>
      <point x="290" y="-150"/>
      <point x="330" y="-100"/>
      <point x="330" y="0" type="curve"/>
      <point x="330" y="160" type="line"/>
      <point x="205" y="160" type="line"/>
    </contour>
    <contour>
      <point x="35" y="0" type="line"/>
      <point x="95" y="0" type="line"/>
      <point x="95" y="0" type="line"/>
      <point x="95" y="-45"/>
      <point x="80" y="-70"/>
      <point x="35" y="-70" type="curve"/>
      <point x="35" y="-150" type="line"/>
      <point x="120" y="-150"/>
      <point x="160" y="-100"/>
      <point x="160" y="0" type="curve"/>
      <point x="160" y="160" type="line"/>
      <point x="35" y="160" type="line"/>
    </contour>
  </outline>
</glyph>
<glyph name="guilsinglleft" format="2">
  <advance width="300"/>
  <unicode hex="2039"/>
  <outline>
    <contour>
      <point x="270" y="580" type="line"/>
      <point x="30" y="380" type="line"/>
      <point x="30" y="232" type="line"/>
      <point x="270" y="422" type="line"/>
    </contour>
    <contour>
      <point x="270" y="182" type="line"/>
      <point x="30" y="372" type="line"/>
      <point x="30" y="220" type="line"/>
      <point x="270" y="20" type="line"/>
    </contour>
  </outline>
</glyph>
<glyph name="guilsinglright" format="2">
  <advance width="300"/>
  <unicode hex="203A"/>
  <outline>
    <contour>
      <point x="30.0" y="20.0" type="line"/>
      <point x="270.0" y="220.0" type="line"/>
      <point x="270.0" y="368.0" type="line"/>
      <point x="30.0" y="178.0" type="line"/>
    </contour>
    <contour>
      <point x="30.0" y="418.0" type="line"/>
      <point x="270.0" y="228.0" type="line"/>
      <point x="270.0" y="380.0" type="line"/>
      <point x="30.0" y="580.0" type="line"/>
    </contour>
  </outline>
</glyph>
<glyph name="Euro" format="2">
  <advance width="450"/>
  <unicode hex="20AC"/>
  <outline>
    <contour>
      <point x="20" y="280" type="line"/>
      <point x="320" y="280" type="line"/>
      <point x="320" y="370" type="line"/>
      <point x="20" y="370" type="line"/>
    </contour>
    <contour>
      <point x="20" y="430" type="line"/>
      <point x="320" y="430" type="line"/>
      <point x="320" y="520" type="line"/>
      <point x="20" y="520" type="line"/>
    </contour>
    <contour>
      <point x="260" y="-10" type="curve" smooth="yes"/>
      <point x="366" y="-10"/>
      <point x="425" y="90"/>
      <point x="445" y="250" type="curve"/>
      <point x="320" y="250" type="line"/>
      <point x="310" y="190"/>
      <point x="293" y="160"/>
      <point x="260" y="160" type="curve" smooth="yes"/>
      <point x="205" y="160"/>
      <point x="190" y="250"/>
      <point x="190" y="400" type="curve" smooth="yes"/>
      <point x="190" y="550"/>
      <point x="205" y="640"/>
      <point x="260" y="640" type="curve" smooth="yes"/>
      <point x="293" y="640"/>
      <point x="310" y="610"/>
      <point x="320" y="550" type="curve"/>
      <point x="445" y="550" type="line"/>
      <point x="425" y="710"/>
      <point x="366" y="810"/>
      <point x="260" y="810" type="curve" smooth="yes"/>
      <point x="125" y="810"/>
      <point x="70" y="650"/>
      <point x="70" y="400" type="curve" smooth="yes"/>
      <point x="70" y="150"/>
      <point x="125" y="-10"/>
    </contour>
  </outline>
</glyph>
<glyph name="minus" format="2">
  <advance width="450"/>
  <unicode hex="2212"/>
  <outline>
    <contour>
      <point x="35" y="275" type="line"/>
      <point x="415" y="275" type="line"/>
      <point x="415" y="425" type="line"/>
      <point x="35" y="425" type="line"/>
    </contour>
  </outline>
</glyph>
<glyph name=".notdef" format="2">
  <advance width="540"/>
  <outline>
    <contour>
      <point x="50" y="-100" type="line"/>
      <point x="490" y="-100" type="line"/>
      <point x="490" y="800" type="line"/>
      <point x="50" y="800" type="line"/>
    </contour>
    <contour>
      <point x="170" y="50" type="line"/>
      <point x="170" y="650" type="line"/>
      <point x="370" y="650" type="line"/>
      <point x="370" y="50" type="line"/>
    </contour>
  </outline>
</glyph>
<glyph name="acutecomb" format="2">
  <anchor x="0" y="600" name="_top"/>
  <outline>
    <contour>
      <point x="-60" y="650" type="line"/>
      <point x="50" y="650" type="line"/>
      <point x="140" y="800" type="line"/>
      <point x="0" y="800" type="line"/>
    </contour>
  </outline>
</glyph>
<glyph name="brevecomb.cap" format="2">
  <anchor x="0" y="800.0" name="_top"/>
  <outline>
    <contour>
      <point x="0" y="780" type="curve" smooth="yes"/>
      <point x="90" y="780"/>
      <point x="140" y="820"/>
      <point x="140" y="900" type="curve"/>
      <point x="50" y="900" type="line"/>
      <point x="50" y="870"/>
      <point x="30" y="854"/>
      <point x="0" y="854" type="curve" smooth="yes"/>
      <point x="-30" y="854"/>
      <point x="-50" y="870"/>
      <point x="-50" y="900" type="curve"/>
      <point x="-140" y="900" type="line"/>
      <point x="-140" y="820"/>
      <point x="-90" y="780"/>
    </contour>
  </outline>
</glyph>
<glyph name="brevecomb" format="2">
  <advance width="0"/>
  <anchor x="0" y="600" name="_top"/>
  <outline>
    <contour>
      <point x="0" y="650" type="curve" smooth="yes"/>
      <point x="90" y="650"/>
      <point x="140" y="700"/>
      <point x="140" y="790" type="curve" smooth="yes"/>
      <point x="140" y="800" type="line"/>
      <point x="50" y="800" type="line"/>
      <point x="50" y="790" type="line" smooth="yes"/>
      <point x="50" y="758"/>
      <point x="32" y="740"/>
      <point x="0" y="740" type="curve" smooth="yes"/>
      <point x="-32" y="740"/>
      <point x="-50" y="758"/>
      <point x="-50" y="790" type="curve" smooth="yes"/>
      <point x="-50" y="800" type="line"/>
      <point x="-140" y="800" type="line"/>
      <point x="-140" y="790" type="line" smooth="yes"/>
      <point x="-140" y="700"/>
      <point x="-90" y="650"/>
    </contour>
  </outline>
</glyph>
<glyph name="caroncomb.alt" format="2">
  <anchor x="0" y="600" name="_caron.alt"/>
  <outline>
    <contour>
      <point x="30" y="650" type="line"/>
      <point x="130" y="650" type="line"/>
      <point x="200" y="800" type="line"/>
      <point x="70" y="800" type="line"/>
    </contour>
  </outline>
</glyph>
<glyph name="caroncomb" format="2">
  <advance width="0"/>
  <anchor x="0" y="600" name="_top"/>
  <outline>
    <contour>
      <point x="-140" y="800" type="line"/>
      <point x="-70" y="650" type="line"/>
      <point x="30" y="650" type="line"/>
      <point x="-30" y="800" type="line"/>
    </contour>
    <contour>
      <point x="140" y="800" type="line"/>
      <point x="30" y="800" type="line"/>
      <point x="-30" y="650" type="line"/>
      <point x="70" y="650" type="line"/>
    </contour>
  </outline>
</glyph>
<glyph name="f.short" format="2">
  <advance width="290"/>
  <outline>
    <contour>
      <point x="200" y="0" type="line"/>
      <point x="200" y="460" type="line"/>
      <point x="280" y="460" type="line"/>
      <point x="280" y="600" type="line"/>
      <point x="200" y="600" type="line"/>
      <point x="200" y="640" type="line" smooth="yes"/>
      <point x="200" y="655"/>
      <point x="205" y="660"/>
      <point x="220" y="660" type="curve" smooth="yes"/>
      <point x="280" y="660" type="line"/>
      <point x="280" y="800" type="line"/>
      <point x="190" y="800" type="line" smooth="yes"/>
      <point x="110" y="800"/>
      <point x="70" y="760"/>
      <point x="70" y="680" type="curve" smooth="yes"/>
      <point x="70" y="600" type="line"/>
      <point x="20" y="600" type="line"/>
      <point x="20" y="460" type="line"/>
      <point x="70" y="460" type="line"/>
      <point x="70" y="0" type="line"/>
    </contour>
  </outline>
</glyph>
<glyph name="hungarumlautcomb" format="2">
  <anchor x="0" y="600" name="_top"/>
  <outline>
    <contour>
      <point x="-130" y="650" type="line"/>
      <point x="-40" y="650" type="line"/>
      <point x="40" y="800" type="line"/>
      <point x="-90" y="800" type="line"/>
    </contour>
    <contour>
      <point x="20" y="650" type="line"/>
      <point x="120" y="650" type="line"/>
      <point x="220" y="800" type="line"/>
      <point x="90" y="800" type="line"/>
    </contour>
  </outline>
</glyph>
<glyph name="macroncomb.cap" format="2">
  <anchor x="0" y="800.0" name="_top"/>
  <outline>
    <contour>
      <point x="-140" y="800" type="line"/>
      <point x="140" y="800" type="line"/>
      <point x="140" y="890" type="line"/>
      <point x="-140" y="890" type="line"/>
    </contour>
  </outline>
</glyph>
<glyph name="macroncomb" format="2">
  <anchor x="0" y="600" name="_top"/>
  <outline>
    <contour>
      <point x="-140" y="670" type="line"/>
      <point x="140" y="670" type="line"/>
      <point x="140" y="780" type="line"/>
      <point x="-140" y="780" type="line"/>
    </contour>
  </outline>
</glyph>
<glyph name="nine.tab" format="2">
  <advance width="450"/>
  <outline>
    <contour>
      <point x="220" y="650" type="curve" smooth="yes"/>
      <point x="270" y="650"/>
      <point x="300" y="600"/>
      <point x="300" y="530" type="curve" smooth="yes"/>
      <point x="300" y="460"/>
      <point x="270" y="410"/>
      <point x="220" y="410" type="curve" smooth="yes"/>
      <point x="170" y="410"/>
      <point x="140" y="460"/>
      <point x="140" y="530" type="curve" smooth="yes"/>
      <point x="140" y="600"/>
      <point x="170" y="650"/>
    </contour>
    <contour>
      <point x="302" y="320" type="line"/>
      <point x="295" y="220"/>
      <point x="270" y="150"/>
      <point x="220" y="150" type="curve" smooth="yes"/>
      <point x="190" y="150"/>
      <point x="170" y="170"/>
      <point x="160" y="220" type="curve"/>
      <point x="40" y="220" type="line"/>
      <point x="50" y="120"/>
      <point x="100" y="-10"/>
      <point x="220" y="-10" type="curve" smooth="yes"/>
      <point x="340" y="-10"/>
      <point x="420" y="130"/>
      <point x="420" y="400" type="curve" smooth="yes"/>
      <point x="420" y="700"/>
      <point x="340" y="810"/>
      <point x="220" y="810" type="curve" smooth="yes"/>
      <point x="100" y="810"/>
      <point x="30" y="690"/>
      <point x="30" y="530" type="curve" smooth="yes"/>
      <point x="30" y="370"/>
      <point x="100" y="260"/>
      <point x="200" y="260" type="curve" smooth="yes"/>
      <point x="240" y="260"/>
      <point x="277" y="280"/>
      <point x="297" y="320" type="curve"/>
    </contour>
  </outline>
</glyph>
<glyph name="one.tab" format="2">
  <advance width="450"/>
  <outline>
    <contour>
      <point x="178" y="0" type="line"/>
      <point x="310" y="0" type="line"/>
      <point x="310" y="800" type="line"/>
      <point x="190" y="800" type="line"/>
      <point x="190" y="710"/>
      <point x="160" y="650"/>
      <point x="70" y="650" type="curve"/>
      <point x="40" y="650" type="line"/>
      <point x="40" y="520" type="line"/>
      <point x="178" y="520" type="line"/>
    </contour>
    <contour>
      <point x="430" y="0" type="line"/>
      <point x="430" y="150" type="line"/>
      <point x="40" y="150" type="line"/>
      <point x="40" y="0" type="line"/>
    </contour>
  </outline>
</glyph>
<glyph name="periodcentered.loclCAT.case" format="2">
  <outline>
    <contour>
      <point x="-165" y="360" type="line"/>
      <point x="-35" y="360" type="line"/>
      <point x="-35" y="520" type="line"/>
      <point x="-165" y="520" type="line"/>
    </contour>
  </outline>
</glyph>
<glyph name="periodcentered.loclCAT" format="2">
  <advance width="200"/>
  <outline>
    <contour>
      <point x="35" y="320" type="line"/>
      <point x="165" y="320" type="line"/>
      <point x="165" y="480" type="line"/>
      <point x="35" y="480" type="line"/>
    </contour>
  </outline>
</glyph>
<glyph name="ringcomb.cap" format="2">
  <anchor x="0" y="800.0" name="_top"/>
  <outline>
    <contour>
      <point x="0" y="695" type="curve" smooth="yes"/>
      <point x="60" y="695"/>
      <point x="100" y="740"/>
      <point x="100" y="800" type="curve" smooth="yes"/>
      <point x="100" y="860"/>
      <point x="60" y="905"/>
      <point x="0" y="905" type="curve" smooth="yes"/>
      <point x="-60" y="905"/>
      <point x="-100" y="860"/>
      <point x="-100" y="800" type="curve" smooth="yes"/>
      <point x="-100" y="740"/>
      <point x="-60" y="695"/>
    </contour>
    <contour>
      <point x="0" y="760" type="curve" smooth="yes"/>
      <point x="-24" y="760"/>
      <point x="-40" y="776"/>
      <point x="-40" y="800" type="curve" smooth="yes"/>
      <point x="-40" y="824"/>
      <point x="-24" y="840"/>
      <point x="0" y="840" type="curve" smooth="yes"/>
      <point x="24" y="840"/>
      <point x="40" y="824"/>
      <point x="40" y="800" type="curve" smooth="yes"/>
      <point x="40" y="776"/>
      <point x="24" y="760"/>
    </contour>
  </outline>
</glyph>
<glyph name="ringcomb" format="2">
  <anchor x="0" y="600" name="_top"/>
  <outline>
    <contour>
      <point x="0" y="645" type="curve" smooth="yes"/>
      <point x="60" y="645"/>
      <point x="100" y="690"/>
      <point x="100" y="750" type="curve" smooth="yes"/>
      <point x="100" y="810"/>
      <point x="60" y="855"/>
      <point x="0" y="855" type="curve" smooth="yes"/>
      <point x="-60" y="855"/>
      <point x="-100" y="810"/>
      <point x="-100" y="750" type="curve" smooth="yes"/>
      <point x="-100" y="690"/>
      <point x="-60" y="645"/>
    </contour>
    <contour>
      <point x="0" y="710" type="curve" smooth="yes"/>
      <point x="-24" y="710"/>
      <point x="-40" y="726"/>
      <point x="-40" y="750" type="curve" smooth="yes"/>
      <point x="-40" y="774"/>
      <point x="-24" y="790"/>
      <point x="0" y="790" type="curve" smooth="yes"/>
      <point x="24" y="790"/>
      <point x="40" y="774"/>
      <point x="40" y="750" type="curve" smooth="yes"/>
      <point x="40" y="726"/>
      <point x="24" y="710"/>
    </contour>
  </outline>
</glyph>
<glyph name="seven.tab" format="2">
  <advance width="450"/>
  <outline>
    <contour>
      <point x="110" y="0" type="curve"/>
      <point x="260" y="0" type="line"/>
      <point x="260" y="240"/>
      <point x="310" y="460"/>
      <point x="430" y="640" type="curve"/>
      <point x="430" y="800" type="line"/>
      <point x="20" y="800" type="line"/>
      <point x="20" y="640" type="line"/>
      <point x="340" y="640" type="line"/>
      <point x="300" y="640" type="line"/>
      <point x="180" y="460"/>
      <point x="110" y="240"/>
    </contour>
  </outline>
</glyph>
<glyph name="t.short" format="2">
  <advance width="290"/>
  <outline>
    <contour>
      <point x="200" y="750" type="line"/>
      <point x="70" y="750" type="line"/>
      <point x="70" y="600" type="line"/>
      <point x="20" y="600" type="line"/>
      <point x="20" y="460" type="line"/>
      <point x="70" y="460" type="line"/>
      <point x="70" y="120" type="line" smooth="yes"/>
      <point x="70" y="40"/>
      <point x="110" y="0"/>
      <point x="190" y="0" type="curve" smooth="yes"/>
      <point x="280" y="0" type="line"/>
      <point x="280" y="140" type="line"/>
      <point x="220" y="140" type="line" smooth="yes"/>
      <point x="205" y="140"/>
      <point x="200" y="145"/>
      <point x="200" y="160" type="curve" smooth="yes"/>
      <point x="200" y="460" type="line"/>
      <point x="280" y="460" type="line"/>
      <point x="280" y="600" type="line"/>
      <point x="200" y="600" type="line"/>
    </contour>
  </outline>
</glyph>
<glyph name="tildecomb.cap" format="2">
  <advance width="0"/>
  <anchor x="0" y="800" name="_top"/>
  <outline>
    <contour>
      <point x="-125" y="800" type="curve"/>
      <point x="-50" y="800" type="line"/>
      <point x="-50" y="820"/>
      <point x="-45" y="830"/>
      <point x="-30" y="830" type="curve"/>
      <point x="-5" y="830"/>
      <point x="15" y="795"/>
      <point x="55" y="795" type="curve" smooth="yes"/>
      <point x="105" y="795"/>
      <point x="125" y="840"/>
      <point x="125" y="900" type="curve"/>
      <point x="50" y="900" type="line"/>
      <point x="50" y="880"/>
      <point x="45" y="870"/>
      <point x="30" y="870" type="curve"/>
      <point x="5" y="870"/>
      <point x="-15" y="905"/>
      <point x="-55" y="905" type="curve" smooth="yes"/>
      <point x="-105" y="905"/>
      <point x="-125" y="860"/>
    </contour>
  </outline>
</glyph>
<glyph name="tildecomb" format="2">
  <advance width="0"/>
  <anchor x="0" y="600" name="_top"/>
  <outline>
    <contour>
      <point x="-140" y="680" type="curve" smooth="yes"/>
      <point x="-140" y="650" type="line"/>
      <point x="-60" y="650" type="line"/>
      <point x="-60" y="670" type="line" smooth="yes"/>
      <point x="-60" y="690"/>
      <point x="-54" y="700"/>
      <point x="-40" y="700" type="curve" smooth="yes"/>
      <point x="-10" y="700"/>
      <point x="0" y="650"/>
      <point x="60" y="650" type="curve" smooth="yes"/>
      <point x="120" y="650"/>
      <point x="140" y="710"/>
      <point x="140" y="770" type="curve" smooth="yes"/>
      <point x="140" y="800" type="line"/>
      <point x="60" y="800" type="line"/>
      <point x="60" y="780" type="line" smooth="yes"/>
      <point x="60" y="760"/>
      <point x="54" y="750"/>
      <point x="40" y="750" type="curve" smooth="yes"/>
      <point x="10" y="750"/>
      <point x="0" y="800"/>
      <point x="-60" y="800" type="curve" smooth="yes"/>
      <point x="-120" y="800"/>
      <point x="-140" y="740"/>
    </contour>
  </outline>
</glyph>
